<svg width="309" height="299" viewBox="0 0 309 299" fill="none" xmlns="http://www.w3.org/2000/svg">
<path d="M127.453 48.3529C128.607 48.3529 129.748 48.3348 130.876 48.3004C130.562 49.5268 130.409 50.7763 130.371 52.0227C131.211 55.1161 133.976 61.2516 142.9 63.8508C141.509 61.9925 140.101 59.8542 138.749 57.3958C136.918 54.0686 137.24 50.7989 138.711 47.7831C154.168 46.1755 165.394 41.345 165.394 35.6344C165.394 35.3687 165.367 35.1057 165.319 34.8441C170.281 35.642 175.84 36.0896 181.71 36.0896C202.665 36.0896 219.651 30.3954 219.651 23.3716C219.651 16.7542 204.573 11.3179 185.304 10.7106C182.433 4.64088 166.752 0 147.836 0C126.881 0 109.895 5.69417 109.895 12.718C109.895 16.9063 115.936 20.6213 125.254 22.9385C105.324 23.3202 89.5123 28.8577 89.5123 35.6344C89.5123 42.6587 106.499 48.3529 127.453 48.3529Z" fill="#F4B869"/>
<path d="M70.8481 103.002C103.776 103.002 130.469 94.0546 130.469 83.0172C130.469 79.3781 127.566 75.9661 122.496 73.0274C123.616 72.8357 124.713 72.6846 125.798 72.5557C125.902 71.5965 126.234 70.1333 127.248 68.9254C128.962 66.8836 131.876 66.4089 135.911 67.5114C141.605 69.0666 146.087 68.7219 148.697 68.2251C147.342 67.5397 145.767 66.9499 143.918 66.5137C136.981 64.8773 133.116 61.2573 130.962 57.8622C131.393 59.8228 132.001 61.6539 132.626 63.2214C129.747 62.9774 127.08 62.9815 124.71 63.1741C124.711 63.1269 124.715 63.0802 124.715 63.0334C124.715 56.0091 107.729 50.3154 86.7744 50.3154C65.8203 50.3154 48.8334 56.0091 48.8334 63.0334C48.8334 63.4984 48.91 63.9582 49.0557 64.4108C26.9067 67.3275 11.2259 74.5589 11.2259 83.0182C11.2264 94.0546 37.9202 103.002 70.8481 103.002Z" fill="#F4B869"/>
<path d="M151.396 69.9179C149.907 70.4405 144.037 72.1266 135.564 69.8105C131.27 68.6386 129.313 69.622 128.427 70.6557C127.953 71.2085 127.722 71.8466 127.608 72.3712C139.266 71.3416 148.849 73.9665 156.657 78.9023C156.357 76.8256 155.274 72.9425 151.396 69.9179Z" fill="#F4B869"/>
<path d="M167.958 78.1696C163.234 74.1879 158.308 71.1494 153.435 68.8734C158.082 73.2354 158.488 78.7892 158.515 80.142C158.895 80.4102 159.279 80.6743 159.65 80.9538C155.07 83.0557 152.365 85.6451 152.365 88.4472C152.365 93.7154 161.92 98.2356 175.539 100.166C175.589 100.261 175.638 100.357 175.688 100.453C176.092 100.655 185.084 105.279 187.969 116.21C188.215 117.146 188.404 118.1 188.545 119.068C189.079 118.161 189.34 116.681 189.433 115.013C189.663 110.852 188.799 106.705 187.093 103.221C186.738 102.497 186.376 101.784 186.01 101.083C187.42 101.137 188.853 101.165 190.305 101.165C211.259 101.165 228.246 95.471 228.246 88.4472C228.246 81.4234 211.259 75.7292 190.305 75.7292C181.949 75.7292 174.226 76.6355 167.958 78.1696Z" fill="#F4B869"/>
<path d="M177.599 104.296C180.85 111.285 183.149 118.734 184.652 125.902C185.056 127.961 185.365 130.197 185.564 132.385C187.289 126.803 187.551 121.641 186.324 116.995C184.61 110.498 180.357 106.378 177.599 104.296Z" fill="#F4B869"/>
<path d="M127.936 162.936C128.339 164.506 129.734 166.127 131.694 167.708C133.754 169.369 136.001 170.56 138.327 171.364C150.974 175.736 165.728 182.193 176.75 183.748C179.732 184.168 182.502 184.039 185.031 183.407C171.513 183.178 151.692 172.296 135.452 161.635C131.291 158.904 127.424 157.139 123.872 156.076C125.579 157.651 127.145 159.857 127.936 162.936Z" fill="#F4B869"/>
<path d="M167.698 266.765C165.84 249.85 162.583 248.487 150.465 243.421C147.799 242.306 144.776 241.043 141.267 239.399C127.993 233.18 123.09 223.41 122.926 216.34C122.804 211.068 125.125 206.696 129.294 204.342C131.792 202.931 133.168 201.158 133.386 199.068C133.826 194.833 129.636 190.268 129.594 190.221L130.814 188.534C132.187 186.852 132.925 185.081 132.925 183.252C132.925 177.571 125.852 172.444 114.498 168.805C117.516 166.477 122.974 166.916 129.659 168.671C127.961 167.085 126.726 165.413 126.286 163.701C124.616 157.194 118.421 155.182 117.004 154.803C109.721 154.309 104.297 156.746 101.084 158.816C99.102 160.093 97.4478 162.169 96.4237 164.786L96.409 164.823C89.3032 163.822 81.4969 163.267 73.3036 163.267C40.3757 163.267 13.6823 172.215 13.6823 183.252C13.6823 185.756 15.0598 188.151 17.5678 190.36C7.00602 192.618 0 196.579 0 201.09C0 207.205 12.8763 212.312 30.0358 213.531C26.4091 215.481 24.3117 217.782 24.3117 220.249C24.3117 227.273 41.2981 232.967 62.2522 232.967C83.2064 232.967 100.193 227.273 100.193 220.249C100.193 219.768 100.11 219.291 99.9544 218.823C106.332 220.163 110.565 223.258 110.876 227.599C112.288 239.409 120.207 249.401 130.337 251.135C132.281 251.468 134.087 251.811 135.73 252.278C132.949 250.218 129.768 248.671 126.727 247.196C126.196 246.938 125.673 246.685 125.162 246.433C117.11 242.461 117.05 232.764 117.186 230.167C116.829 229.72 116.481 229.265 116.152 228.795C112.399 223.431 110.825 218.136 111.472 213.058C111.494 212.887 111.521 212.721 111.547 212.553C110.651 214.333 110.138 215.625 110.138 215.625C110.138 215.625 101.722 212.753 92.2114 212.446C86.8146 210.122 79.0631 208.442 70.157 207.809C72.7142 206.435 74.5098 204.885 75.3465 203.225C94.0406 203.013 110.553 199.919 121.046 195.225C122.312 198.166 121.655 201.106 119.775 202.543C119.76 202.555 119.747 202.57 119.732 202.58C119.729 202.582 119.703 202.601 119.67 202.626C119.657 202.636 119.645 202.645 119.631 202.655C118.888 203.212 113.996 207.101 113.19 213.467C112.645 217.777 114.068 222.392 117.422 227.185C121.681 233.273 128.738 237.368 135.562 241.33C138.041 242.769 140.537 244.219 142.899 245.774C149.907 245.871 155.201 248.46 158.629 253.479C164.431 261.973 163.635 275.476 163.159 283.545C163.075 284.968 163.002 286.196 162.973 287.229C162.843 291.834 165.763 295.93 168.787 298.919H184.67C177.777 294.276 169.512 283.277 167.698 266.765Z" fill="#F4B869"/>
<path d="M156.307 197.953C148.402 197.953 141.073 198.769 134.997 200.155C134.489 202.771 132.803 204.907 129.969 206.506C126.503 208.463 124.572 212.021 124.67 216.267C124.809 222.271 129.389 231.349 141.84 237.182C145.322 238.813 148.33 240.071 150.983 241.18C160.245 245.052 164.875 246.992 167.459 255.587C167.336 253.623 167.244 251.64 167.173 249.649C166.519 231.18 135.117 230.466 131.018 220.15C137.729 222.163 146.591 223.388 156.307 223.388C177.261 223.388 194.248 217.694 194.248 210.67C194.248 203.646 177.261 197.953 156.307 197.953Z" fill="#F4B869"/>
<path d="M309 136.298C309 125.261 282.307 116.313 249.379 116.313C226.144 116.313 206.016 120.769 196.177 127.269C194.845 122.694 193.2 117.868 191.223 112.807C191.274 116.445 190.803 120.34 188.801 121.791C189.011 126.562 188.014 131.681 185.813 137.086C185.872 142.277 185.085 146.005 183.136 144.274C175.216 137.337 167.358 141.342 161.433 141.92C159.926 142.067 158.793 141.509 157.874 140.595C167.134 138.275 173.129 134.572 173.129 130.4C173.129 123.376 156.142 117.682 135.188 117.682C114.234 117.682 97.2473 123.376 97.2473 130.4C97.2473 137.424 114.234 143.117 135.188 143.117C137.711 143.117 140.177 143.034 142.563 142.876C154.964 150.255 166.107 138.05 177.948 147.825C179.348 148.98 180.484 150.081 181.404 151.128C175.329 153.734 171.708 157.014 171.708 160.578C171.708 162.356 172.612 164.062 174.27 165.651C172.355 165.463 170.264 165.013 168.045 164.381C163.849 163.494 156.16 162.329 153.56 163.988C151.439 165.345 146.383 164.407 141.795 163.106C165.922 178.219 183.046 183.936 191.952 179.898C193.73 178.404 195.272 176.514 196.542 174.237C202.834 175.325 209.974 175.941 217.543 175.941C242.857 175.941 263.377 169.062 263.377 160.577C263.377 158.942 262.612 157.367 261.201 155.89C288.465 154.05 309 145.978 309 136.298Z" fill="#F4B869"/>
<path d="M154.32 270.567C156.701 256.157 146.097 250.002 134.871 243.485C129.169 240.175 123.31 236.771 118.897 232.131C119.013 235.412 120.048 241.411 125.764 244.23C126.272 244.48 126.792 244.733 127.319 244.989C132.056 247.287 137.786 250.071 141.532 255.238C144.742 258.159 146.325 263.348 145.625 273.433C144.648 287.503 131.207 295.744 127.56 298.919H149.69C149.952 294.849 150.849 289.962 152.023 283.574C152.713 279.812 153.498 275.548 154.32 270.567Z" fill="#F4B869"/>
<path d="M161.23 287.14C161.261 286.059 161.335 284.808 161.419 283.359C161.873 275.673 162.632 262.808 157.345 255.068C154.886 251.467 151.296 249.257 146.653 248.458C153.244 253.634 157.807 260.277 156.024 271.075C155.196 276.083 154.41 280.362 153.717 284.137C152.559 290.437 151.698 295.12 151.441 298.919H166.001C163.331 295.772 161.1 291.748 161.23 287.14Z" fill="#F4B869"/>
<path d="M152.811 161.868C154.012 161.1 155.91 160.815 158.011 160.797C145.667 155.762 131.508 148.505 120.331 147.081C112.535 146.087 105.948 150.185 101.34 156.094C104.755 154.104 109.937 152.095 116.616 152.436C116.728 152.395 116.847 152.384 116.969 152.409C117 152.416 117.097 152.437 117.245 152.473C121.972 152.815 127.424 154.344 133.51 157.86C139.846 160.391 150.192 163.538 152.811 161.868Z" fill="#F4B869"/>
</svg>
