<svg width="446" height="279" viewBox="0 0 446 279" fill="none" xmlns="http://www.w3.org/2000/svg">
<path d="M409.872 133.073C409.965 133.056 410.053 133.026 410.142 132.999C433.078 131.052 445.458 121.554 446 121.129L442.453 116.592C442.418 116.618 441.43 117.368 439.545 118.46V116.763C439.545 115.172 438.255 113.883 436.665 113.883C435.074 113.883 433.785 115.172 433.785 116.763V121.348C432.686 121.827 431.486 122.312 430.185 122.791V119.912C430.185 118.322 428.897 117.032 427.306 117.032C425.716 117.032 424.427 118.322 424.427 119.912V124.64C423.417 124.92 422.368 125.188 421.277 125.441V122.312C421.277 120.722 419.988 119.433 418.397 119.433C416.806 119.433 415.518 120.722 415.518 122.312V126.553C414.446 126.721 413.35 126.875 412.218 127.006V123.782C412.218 122.191 410.929 120.902 409.338 120.902C407.748 120.902 406.459 122.191 406.459 123.782V127.475C406.286 127.484 406.117 127.497 405.944 127.504C388.022 128.28 377.055 113.048 373.25 106.64C372.91 105.874 372.58 105.089 372.261 104.281H374.771V100.984H368.233V97.0821H374.771V93.7852H342.014V85.4466H338.749C342.261 83.8824 345.683 82.0966 348.985 80.0786L362.104 72.062V63.6635C362.104 63.6635 346.849 70.0766 330.029 68.6354C330.122 68.6176 330.21 68.5877 330.3 68.5613C353.237 66.6138 365.617 57.1163 366.16 56.6908L362.613 52.1529C362.579 52.1799 361.589 52.9292 359.704 54.0214V52.3237C359.704 50.7338 358.415 49.4444 356.824 49.4444C355.234 49.4444 353.945 50.7338 353.945 52.3237V56.9081C352.846 57.3869 351.645 57.8724 350.345 58.3512V55.4731C350.345 53.8831 349.056 52.5937 347.466 52.5937C345.875 52.5937 344.586 53.8831 344.586 55.4731V60.2013C343.576 60.4811 342.527 60.7486 341.436 61.0021V57.873C341.436 56.2824 340.147 54.993 338.556 54.993C336.966 54.993 335.677 56.2824 335.677 57.873V62.1139C334.605 62.2817 333.509 62.436 332.377 62.567V59.3423C332.377 57.7524 331.088 56.463 329.498 56.463C327.907 56.463 326.618 57.7524 326.618 59.3423V63.0359C326.445 63.0445 326.277 63.0567 326.103 63.0647C308.198 63.8392 297.238 48.6503 293.419 42.2231C293.076 41.4499 292.742 40.657 292.419 39.8416H294.929V36.5453H288.392V32.6429H294.929V29.3467H281.533V24.0968H267.655V13.1722H261.192V3.32198H244.874V15.2727H256.077V7.51941H249.053V9.67937H253.917V13.1146H247.034V5.48377H259.033V16.9612H242.789V3.32381H225.36V10.3932H224.082V2.15933H242.729V0H202.714V2.15933H221.922V10.3932H220.022V3.32381H202.593V16.9612H186.349V5.48377H198.348V13.1146H191.465V9.67937H196.329V7.51941H189.305V15.2739H200.508V3.32318H184.189V13.1734H177.727V24.098H163.849V29.3479H150.594V32.6442H156.65V36.5465H150.594V39.8428H153.103C152.78 40.6595 152.446 41.4536 152.102 42.2274C148.282 48.6577 137.323 63.8435 119.421 63.0659C119.246 63.058 119.078 63.0457 118.906 63.0372V59.3436C118.906 57.7536 117.616 56.4642 116.026 56.4642C114.436 56.4642 113.146 57.7536 113.146 59.3436V62.5682C112.014 62.4372 110.918 62.2829 109.847 62.1152V57.8742C109.847 56.2837 108.557 54.9943 106.967 54.9943C105.376 54.9943 104.087 56.2837 104.087 57.8742V61.0033C102.996 60.7505 101.947 60.4817 100.937 60.2025V55.4743C100.937 53.8843 99.648 52.5949 98.058 52.5949C96.4675 52.5949 95.1781 53.8843 95.1781 55.4743V58.353C93.8777 57.8736 92.6771 57.3881 91.5788 56.91V52.325C91.5788 50.735 90.2894 49.4456 88.6988 49.4456C87.1082 49.4456 85.8189 50.735 85.8189 52.325V54.0227C83.9363 52.9317 82.9488 52.1842 82.9157 52.1584L79.3629 56.6914C79.906 57.1169 92.2859 66.6144 115.223 68.5619C115.313 68.5883 115.401 68.6183 115.494 68.636C98.6733 70.0772 83.4183 63.6641 83.4183 63.6641V72.0627L96.536 80.0792C99.839 82.0971 103.261 83.883 106.773 85.4473H103.987V93.7859H71.2307V97.0827H77.7674V100.985H71.2307V104.282H73.7402C73.4212 105.089 73.0906 105.874 72.7508 106.64C68.9452 113.05 57.9789 128.281 40.0571 127.505C39.8826 127.497 39.7148 127.484 39.5416 127.476V123.782C39.5416 122.192 38.2522 120.902 36.6616 120.902C35.0711 120.902 33.7823 122.192 33.7823 123.782V127.007C32.6503 126.876 31.5544 126.721 30.483 126.554V122.313C30.483 120.723 29.1936 119.433 27.6031 119.433C26.0125 119.433 24.7231 120.723 24.7231 122.313V125.442C23.6327 125.188 22.5834 124.92 21.5732 124.641V119.913C21.5732 118.322 20.2838 117.033 18.6939 117.033C17.1033 117.033 15.8139 118.322 15.8139 119.913V122.792C14.5136 122.312 13.313 121.827 12.2146 121.349V116.764C12.2146 115.173 10.9253 113.884 9.33469 113.884C7.74473 113.884 6.45537 115.173 6.45537 116.764V118.461C4.5697 117.368 3.58096 116.619 3.54667 116.593L0 121.13C0.543049 121.555 12.9218 131.052 35.8578 133C35.9478 133.026 36.0353 133.056 36.1284 133.074C19.3085 134.515 4.05543 128.102 4.05543 128.102V136.501L17.1731 144.517C31.1926 153.085 47.304 157.618 63.7345 157.618H51.1299V160.915H56.7692V257.943H54.6092V264.194H51.4948V278.461H77.1607V264.194H74.0463V257.943H71.8863V169.073H136.131V258.447H133.971V264.698H130.856V278.964H156.522V264.698H153.408V258.447H151.248V146.408H153.828V150.892H167.386V134.575H176.865V140.993H171.406V138.534H173.085V139.494H175.245V136.374H169.246V143.153H179.024V138.852H266.493V143.153H276.272V136.374H270.273V139.494H272.432V138.534H274.112V140.993H268.653V134.575H278.132V150.892H291.691V146.408H294.271V258.447H292.111V264.698H288.996V278.964H314.662V264.698H311.548V258.447H309.388V169.073H374.112V257.943H371.952V264.194H368.837V278.461H394.503V264.194H391.39V257.943H389.23V160.914H394.869V157.617H382.264C398.694 157.617 414.806 153.084 428.826 144.517L441.943 136.5V128.101C441.945 128.101 426.691 134.514 409.872 133.073ZM282.517 123.687V118.281H287.496V120.101H286.117V119.212H283.958V122.261H289.656V120.761H294.273V123.687L282.517 123.687ZM151.251 123.687V120.762H156.173V122.261H161.871V119.212H159.711V120.102H158.332V118.282H163.311V123.688H151.251V123.687ZM135.361 97.0821V100.984H130.322V97.0821H135.361ZM171.048 32.6442V36.5465H166.008V32.6442H171.048ZM281.194 101.338V96.476H286.233V101.338H281.194ZM289.655 111.992V109.738H294.273V118.602H289.655V116.122H286.055V111.992H289.655ZM283.895 116.121H280.357V118.601H275.492V109.738H280.357V111.992H283.895V116.121ZM161.933 116.121V111.992H165.471V109.737H170.031V118.601H165.471V116.121H161.933ZM156.173 116.121V118.601H151.251V109.738H156.173V111.992H159.773V116.122L156.173 116.121ZM273.994 101.338V96.476H279.034V101.338H273.994ZM271.834 101.338H266.795V96.476H271.834V101.338ZM264.635 101.338H259.596V96.476H264.635V101.338ZM257.437 101.338H252.397V96.476H257.437V101.338ZM250.237 101.338H245.198V96.476H250.237V101.338ZM243.038 101.338H237.999V96.476H243.038V101.338ZM235.839 101.338H230.8V96.476H235.839V101.338ZM228.64 101.338H223.601V96.476H228.64V101.338ZM221.441 101.338H216.402V96.476H221.441V101.338ZM214.242 101.338H209.202V96.476H214.242V101.338ZM207.043 101.338H202.003V96.476H207.043V101.338ZM199.844 101.338H194.805V96.476H199.844V101.338ZM192.645 101.338H187.605V96.476H192.645V101.338ZM185.445 101.338H180.406V96.476H185.445V101.338ZM178.247 101.338H173.208V96.476H178.247V101.338ZM171.048 101.338H166.008V96.476H171.048V101.338ZM163.848 101.338H158.809V96.476H163.848V101.338ZM156.649 101.338H151.251V96.476H156.649V101.338ZM163.312 104.635V109.833H158.333V108.013H159.712V108.902H161.871V105.854H156.173V107.578H151.251V104.635H163.312ZM170.031 107.578H165.471V104.635H170.031V107.578ZM280.357 107.578H275.492V104.635H280.357V107.578ZM216.402 43.709V81.3839C216.402 81.9802 215.918 82.4639 215.322 82.4639C214.725 82.4639 214.242 81.9802 214.242 81.3839V43.709C214.242 43.1127 214.725 42.6291 215.322 42.6291C215.918 42.6291 216.402 43.1133 216.402 43.709ZM209.202 43.709V81.3839C209.202 81.9802 208.719 82.4639 208.122 82.4639C207.526 82.4639 207.043 81.9802 207.043 81.3839V43.709C207.043 43.1127 207.526 42.6291 208.122 42.6291C208.719 42.6291 209.202 43.1133 209.202 43.709ZM202.004 43.709V81.3839C202.004 81.9802 201.52 82.4639 200.924 82.4639C200.328 82.4639 199.844 81.9802 199.844 81.3839V43.709C199.844 43.1127 200.328 42.6291 200.924 42.6291C201.52 42.6297 202.004 43.1133 202.004 43.709ZM194.805 43.709V81.3839C194.805 81.9802 194.321 82.4639 193.725 82.4639C193.128 82.4639 192.645 81.9802 192.645 81.3839V43.709C192.645 43.1127 193.128 42.6291 193.725 42.6291C194.322 42.6297 194.805 43.1133 194.805 43.709ZM187.605 43.709V81.3839C187.605 81.9802 187.122 82.4639 186.525 82.4639C185.929 82.4639 185.445 81.9802 185.445 81.3839V43.709C185.445 43.1127 185.929 42.6291 186.525 42.6291C187.122 42.6297 187.605 43.1133 187.605 43.709ZM180.407 43.709V81.3839C180.407 81.9802 179.923 82.4639 179.327 82.4639C178.73 82.4639 178.247 81.9802 178.247 81.3839V43.709C178.247 43.1127 178.731 42.6291 179.327 42.6291C179.923 42.6297 180.407 43.1133 180.407 43.709ZM173.208 43.709V81.3839C173.208 81.9802 172.724 82.4639 172.128 82.4639C171.531 82.4639 171.048 81.9802 171.048 81.3839V43.709C171.048 43.1127 171.531 42.6291 172.128 42.6291C172.724 42.6297 173.208 43.1133 173.208 43.709ZM166.008 43.709V81.3839C166.008 81.9802 165.525 82.4639 164.928 82.4639C164.332 82.4639 163.848 81.9802 163.848 81.3839V43.709C163.848 43.1127 164.331 42.6291 164.928 42.6291C165.525 42.6297 166.008 43.1133 166.008 43.709ZM287.312 48.1857C287.909 48.1857 288.392 48.6693 288.392 49.2656V81.3845C288.392 81.9808 287.908 82.4645 287.312 82.4645C286.716 82.4645 286.232 81.9808 286.232 81.3845V49.2656C286.233 48.6693 286.716 48.1857 287.312 48.1857ZM281.194 43.709V81.3839C281.194 81.9802 280.71 82.4639 280.114 82.4639C279.517 82.4639 279.034 81.9802 279.034 81.3839V43.709C279.034 43.1127 279.517 42.6291 280.114 42.6291C280.71 42.6297 281.194 43.1133 281.194 43.709ZM273.994 43.709V81.3839C273.994 81.9802 273.511 82.4639 272.914 82.4639C272.317 82.4639 271.834 81.9802 271.834 81.3839V43.709C271.834 43.1127 272.317 42.6291 272.914 42.6291C273.511 42.6297 273.994 43.1133 273.994 43.709ZM266.795 43.709V81.3839C266.795 81.9802 266.311 82.4639 265.715 82.4639C265.118 82.4639 264.635 81.9802 264.635 81.3839V43.709C264.635 43.1127 265.118 42.6291 265.715 42.6291C266.312 42.6297 266.795 43.1133 266.795 43.709ZM259.596 43.709V81.3839C259.596 81.9802 259.113 82.4639 258.516 82.4639C257.92 82.4639 257.436 81.9802 257.436 81.3839V43.709C257.436 43.1127 257.92 42.6291 258.516 42.6291C259.113 42.6297 259.596 43.1133 259.596 43.709ZM252.397 43.709V81.3839C252.397 81.9802 251.914 82.4639 251.317 82.4639C250.72 82.4639 250.237 81.9802 250.237 81.3839V43.709C250.237 43.1127 250.72 42.6291 251.317 42.6291C251.914 42.6297 252.397 43.1133 252.397 43.709ZM245.198 43.709V81.3839C245.198 81.9802 244.714 82.4639 244.118 82.4639C243.522 82.4639 243.038 81.9802 243.038 81.3839V43.709C243.038 43.1127 243.522 42.6291 244.118 42.6291C244.715 42.6297 245.198 43.1133 245.198 43.709ZM237.999 43.709V81.3839C237.999 81.9802 237.515 82.4639 236.919 82.4639C236.322 82.4639 235.839 81.9802 235.839 81.3839V43.709C235.839 43.1127 236.322 42.6291 236.919 42.6291C237.516 42.6297 237.999 43.1133 237.999 43.709ZM230.8 43.709V81.3839C230.8 81.9802 230.316 82.4639 229.72 82.4639C229.123 82.4639 228.64 81.9802 228.64 81.3839V43.709C228.64 43.1127 229.124 42.6291 229.72 42.6291C230.316 42.6297 230.8 43.1133 230.8 43.709ZM221.441 43.709C221.441 43.1127 221.925 42.6291 222.521 42.6291C223.117 42.6291 223.601 43.1127 223.601 43.709V81.3839C223.601 81.9802 223.117 82.4639 222.521 82.4639C221.924 82.4639 221.441 81.9802 221.441 81.3839V43.709ZM293.431 81.3839V55.9837C293.431 55.3873 293.914 54.9037 294.511 54.9037C295.108 54.9037 295.591 55.3873 295.591 55.9837V81.3839C295.591 81.9802 295.108 82.4639 294.511 82.4639C293.915 82.4639 293.431 81.9802 293.431 81.3839ZM192.645 32.6442V36.5465H187.605V32.6442H192.645ZM194.805 32.6442H199.843V36.5465H194.805V32.6442ZM202.003 32.6442H207.043V36.5465H202.003V32.6442ZM209.202 32.6442H214.242V36.5465H209.202V32.6442ZM216.402 32.6442H221.441V36.5465H216.402V32.6442ZM252.397 36.5471V32.6448H257.436V36.5471H252.397ZM250.237 36.5471H245.198V32.6448H250.237V36.5471ZM243.038 36.5471H237.999V32.6448H243.038V36.5471ZM235.839 36.5471H230.8V32.6448H235.839V36.5471ZM228.64 36.5471H223.601V32.6448H228.64V36.5471ZM273.994 36.5471V32.6448H279.034V36.5471H273.994ZM271.834 36.5471H266.795V32.6448H271.834V36.5471ZM264.635 36.5471H259.596V32.6448H264.635V36.5471ZM185.445 36.5471H180.406V32.6448H185.445V36.5471ZM178.247 36.5471H173.208V32.6448H178.247V36.5471ZM158.809 49.2656V81.3845C158.809 81.9808 158.325 82.4645 157.729 82.4645C157.132 82.4645 156.649 81.9808 156.649 81.3845V49.2656C156.649 48.6693 157.132 48.1857 157.729 48.1857C158.326 48.1857 158.809 48.6693 158.809 49.2656ZM151.61 55.9843V81.3845C151.61 81.9808 151.127 82.4645 150.531 82.4645C149.934 82.4645 149.451 81.9808 149.451 81.3845V55.9843C149.451 55.3879 149.934 54.9043 150.531 54.9043C151.127 54.9043 151.61 55.3879 151.61 55.9843ZM165.471 120.761H170.031V123.687H165.471V120.761ZM275.492 120.761H280.357V123.687H275.492V120.761ZM294.273 107.578H289.655V105.853H283.957V108.902H286.116V108.012H287.495V109.832H282.516V104.635H294.272V107.578H294.273ZM294.273 101.338H288.393V96.476H294.273V101.338ZM286.233 36.5471H281.194V32.6448H286.233V36.5471ZM261.192 19.1206V15.3333H265.495V26.258H279.373V29.3479H262.173V21.0087H252.492V19.1206H261.192ZM225.36 12.5526V19.1206H237.078V7.40309H228.789V13.6118H230.948V9.56305H234.917V16.9606H227.52V5.48314H240.63V19.1206H250.332V21.0087H224.082V12.5526H225.36ZM204.752 19.1206V5.48314H217.862V16.9606H210.464V9.56305H214.433V13.6118H216.593V7.40309H208.304V19.1206H220.022V12.5526H221.922V21.0087H195.05V19.1206H204.752ZM166.008 26.2586H179.886V15.334H184.189V19.1212H192.889V21.0093H183.829V29.3485H166.008V26.2586ZM158.809 32.6442H163.848V36.5465H158.809V32.6442ZM128.163 97.0821V100.984H123.123V97.0821H128.163ZM120.963 97.0821V100.984H115.924V97.0821H120.963ZM113.765 97.0821V100.984H108.726V97.0821H113.765ZM101.526 97.0821H106.565V100.984H101.526V97.0821ZM94.3265 97.0821H99.3658V100.984H94.3265V97.0821ZM87.1279 97.0821H92.1671V100.984H87.1279V97.0821ZM79.9286 97.0821H84.9679V100.984H79.9286V97.0821ZM71.65 146.902C71.0531 146.902 70.5701 146.418 70.5701 145.822V120.422C70.5701 119.826 71.0537 119.342 71.65 119.342C72.2463 119.342 72.73 119.826 72.73 120.422V145.822C72.73 146.418 72.2463 146.902 71.65 146.902ZM77.7693 165.776H71.8888V160.914H77.7693V165.776ZM79.9286 145.822C79.9286 146.418 79.445 146.902 78.8486 146.902C78.2523 146.902 77.7687 146.418 77.7687 145.822V113.703C77.7687 113.107 78.2517 112.623 78.8486 112.623C79.4456 112.623 79.9286 113.107 79.9286 113.703V145.822ZM84.9679 165.776H79.9286V160.914H84.9679V165.776ZM87.1279 145.822C87.1279 146.418 86.6448 146.902 86.0479 146.902C85.4516 146.902 84.9679 146.418 84.9679 145.822V108.147C84.9679 107.551 85.4516 107.067 86.0479 107.067C86.6448 107.067 87.1279 107.551 87.1279 108.147V145.822ZM92.1671 165.776H87.1279V160.914H92.1671V165.776ZM94.3265 145.822C94.3265 146.418 93.8434 146.902 93.2465 146.902C92.6502 146.902 92.1665 146.418 92.1665 145.822V108.147C92.1665 107.551 92.6502 107.067 93.2465 107.067C93.8434 107.067 94.3265 107.551 94.3265 108.147V145.822ZM99.3663 165.776H94.3271V160.914H99.3663V165.776ZM101.526 145.822C101.526 146.418 101.042 146.902 100.446 146.902C99.8488 146.902 99.3658 146.418 99.3658 145.822V108.147C99.3658 107.551 99.8488 107.067 100.446 107.067C101.042 107.067 101.526 107.551 101.526 108.147V145.822ZM106.566 165.776H101.526V160.914H106.566V165.776ZM108.725 145.822C108.725 146.418 108.241 146.902 107.645 146.902C107.049 146.902 106.565 146.418 106.565 145.822V108.147C106.565 107.551 107.049 107.067 107.645 107.067C108.241 107.067 108.725 107.551 108.725 108.147V145.822ZM113.765 165.776H108.726V160.914H113.765V165.776ZM115.924 145.822C115.924 146.418 115.441 146.902 114.844 146.902C114.247 146.902 113.764 146.418 113.764 145.822V108.147C113.764 107.551 114.248 107.067 114.844 107.067C115.44 107.067 115.924 107.551 115.924 108.147V145.822ZM120.963 165.776H115.924V160.914H120.963V165.776ZM123.123 145.822C123.123 146.418 122.64 146.902 122.043 146.902C121.447 146.902 120.963 146.418 120.963 145.822V108.147C120.963 107.551 121.447 107.067 122.043 107.067C122.64 107.067 123.123 107.551 123.123 108.147V145.822ZM128.163 165.776H123.123V160.914H128.163V165.776ZM130.322 145.822C130.322 146.418 129.839 146.902 129.242 146.902C128.646 146.902 128.162 146.418 128.162 145.822V108.147C128.162 107.551 128.645 107.067 129.242 107.067C129.839 107.067 130.322 107.551 130.322 108.147V145.822ZM135.361 165.776H130.322V160.914H135.361V165.776ZM135.361 145.822V108.147C135.361 107.659 135.688 107.251 136.133 107.117V146.852C135.688 146.718 135.361 146.31 135.361 145.822ZM151.251 144.248V126.983H157.97V139.553H153.83V144.248H151.251ZM165.229 132.415V148.732H155.99V141.713H162.05V144.953H160.13V143.273H157.97V147.112H164.209V139.553H160.129V126.983H170.031V130.435H171.288V132.414L165.229 132.415ZM179.027 134.574H184.847V136.691H179.027V134.574ZM256.837 134.574V136.691H251.798V134.574H256.837ZM249.638 136.691H244.599V134.574H249.638V136.691ZM242.439 136.691H237.399V134.574H242.439V136.691ZM235.24 136.691H230.201V134.574H235.24V136.691ZM228.041 136.691H223.002V134.574H228.041V136.691ZM220.842 136.691H215.802V134.574H220.842V136.691ZM213.642 136.691H208.603V134.574H213.642V136.691ZM206.444 136.691H201.404V134.574H206.444V136.691ZM199.245 136.691H194.205V134.574H199.245V136.691ZM192.045 136.691H187.006V134.574H192.045V136.691ZM258.996 136.691V134.574H266.496V136.691H258.996ZM267.575 132.415H266.495H179.027H177.947H173.448V130.435H272.075V132.415H267.575ZM289.533 148.732H280.294V132.415H274.235V130.435H275.492V126.984H285.393V139.554H281.314V147.113H287.553V143.274H285.393V144.954H283.474V141.714H289.533V148.732ZM291.693 144.248V139.553H287.553V126.983H294.273V144.248H291.693ZM309.561 146.902C309.502 146.902 309.446 146.894 309.39 146.885V107.085C309.446 107.076 309.503 107.068 309.561 107.068C310.158 107.068 310.641 107.551 310.641 108.148V145.822C310.641 146.418 310.158 146.902 309.561 146.902ZM315.68 165.776H310.641V160.914H315.68V165.776ZM315.68 100.984H310.641V97.0821H315.68V100.984ZM316.76 146.902C316.164 146.902 315.68 146.418 315.68 145.822V108.147C315.68 107.551 316.164 107.067 316.76 107.067C317.357 107.067 317.84 107.551 317.84 108.147V145.822C317.84 146.418 317.357 146.902 316.76 146.902ZM322.88 165.776H317.84V160.914H322.88V165.776ZM322.88 100.984H317.84V97.0821H322.88V100.984ZM323.96 146.902C323.363 146.902 322.88 146.418 322.88 145.822V108.147C322.88 107.551 323.363 107.067 323.96 107.067C324.556 107.067 325.04 107.551 325.04 108.147V145.822C325.039 146.418 324.556 146.902 323.96 146.902ZM330.078 165.776H325.039V160.914H330.078V165.776ZM330.078 100.984H325.039V97.0821H330.078V100.984ZM331.158 146.902C330.562 146.902 330.078 146.418 330.078 145.822V108.147C330.078 107.551 330.561 107.067 331.158 107.067C331.755 107.067 332.238 107.551 332.238 108.147V145.822C332.238 146.418 331.755 146.902 331.158 146.902ZM337.278 165.776H332.238V160.914H337.278V165.776ZM337.278 100.984H332.238V97.0821H337.278V100.984ZM338.358 146.902C337.761 146.902 337.278 146.418 337.278 145.822V108.147C337.278 107.551 337.761 107.067 338.358 107.067C338.954 107.067 339.438 107.551 339.438 108.147V145.822C339.438 146.418 338.954 146.902 338.358 146.902ZM344.477 165.776H339.438V160.914H344.477V165.776ZM344.477 100.984H339.438V97.0821H344.477V100.984ZM345.557 146.902C344.96 146.902 344.477 146.418 344.477 145.822V108.147C344.477 107.551 344.96 107.067 345.557 107.067C346.154 107.067 346.637 107.551 346.637 108.147V145.822C346.636 146.418 346.153 146.902 345.557 146.902ZM351.676 165.776H346.637V160.914H351.676V165.776ZM351.676 100.984H346.637V97.0821H351.676V100.984ZM352.755 146.902C352.159 146.902 351.675 146.418 351.675 145.822V108.147C351.675 107.551 352.158 107.067 352.755 107.067C353.352 107.067 353.835 107.551 353.835 108.147V145.822C353.835 146.418 353.352 146.902 352.755 146.902ZM358.875 165.776H353.835V160.914H358.875V165.776ZM358.875 100.984H353.835V97.0821H358.875V100.984ZM359.955 146.902C359.358 146.902 358.875 146.418 358.875 145.822V108.147C358.875 107.551 359.358 107.067 359.955 107.067C360.551 107.067 361.035 107.551 361.035 108.147V145.822C361.035 146.418 360.552 146.902 359.955 146.902ZM366.074 165.776H361.035V160.914H366.074V165.776ZM366.074 100.984H361.035V97.0821H366.074V100.984ZM367.154 146.902C366.557 146.902 366.074 146.418 366.074 145.822V113.703C366.074 113.107 366.557 112.623 367.154 112.623C367.751 112.623 368.234 113.107 368.234 113.703V145.822C368.234 146.418 367.751 146.902 367.154 146.902ZM374.114 165.776H368.234V160.914H374.114V165.776ZM375.432 145.822C375.432 146.418 374.949 146.902 374.352 146.902C373.756 146.902 373.272 146.418 373.272 145.822V120.422C373.272 119.826 373.756 119.342 374.352 119.342C374.949 119.342 375.432 119.826 375.432 120.422V145.822Z" fill="#F4B869"/>
</svg>
