<svg width="513" height="300" viewBox="0 0 513 300" fill="none" xmlns="http://www.w3.org/2000/svg">
<path d="M483.325 227.378C483.325 227.378 483.498 227.366 483.695 227.394C483.963 227.464 484.033 227.506 484.104 227.548C484.619 227.663 485.134 227.778 485.963 227.92C486.7 228.074 487.124 228.203 487.745 228.326C489.096 228.445 490.248 228.594 491.403 228.686C498.518 229.255 504.296 227.13 508.158 220.726C510.978 216.05 512.289 210.956 513 205.638C512.976 204.831 512.953 204.025 512.909 202.868C512.438 196.77 509.159 193.489 503.789 191.898C499.631 190.667 495.47 190.403 491.155 191.422C490.925 191.535 490.775 191.562 490.499 191.65C490.19 191.739 490.006 191.767 489.719 191.904C489.328 192.089 489.042 192.165 488.708 192.289C488.661 192.337 488.527 192.344 488.437 192.465C487.624 192.99 486.902 193.394 486.18 193.798C486.049 193.59 485.917 193.381 485.786 193.173C486.423 192.634 487.06 192.096 487.764 191.478C487.939 191.311 488.064 191.259 488.258 191.136C488.457 190.973 488.601 190.917 488.883 190.748C491.092 189.816 493.164 188.996 495.078 188.238C493.093 184.834 491.172 181.538 489.251 178.242C489.251 178.242 489.219 178.246 489.089 178.156C484.56 167.186 480.054 156.348 475.789 145.416C470.511 131.89 465.796 118.133 460.18 104.752C451.827 84.8484 438.737 68.5883 420.95 56.127C406.094 45.7184 389.998 37.7427 373.189 31.1001C368.022 29.0586 362.801 27.1567 357.604 25.1908C357.407 25.1505 357.209 25.1102 356.696 25.017C353.875 24.1575 351.364 23.3741 348.869 22.5405C328.836 15.8473 308.278 12.039 287.15 11.5889C279.878 11.434 272.597 11.7871 265.32 11.8608C246.739 12.0488 228.447 9.2653 210.116 6.68188C193.493 4.33909 176.845 1.9815 160.13 0.538647C142.267 -1.0032 124.545 0.741893 107.313 6.07264C101.779 7.78484 96.3142 9.72274 90.8176 11.5574C90.5932 11.6924 90.3688 11.8274 89.8946 12.0827C85.9013 13.8698 82.0453 15.3265 78.4401 17.2518C72.7216 20.3058 67.1708 23.673 61.549 26.9077C61.549 26.9077 61.5285 26.8722 61.4696 27.0215C60.5652 27.738 59.7199 28.3051 58.8745 28.8721C58.8745 28.8721 58.7971 28.885 58.7888 28.9902C58.6295 29.1554 58.4785 29.2155 58.3274 29.2755C58.3274 29.2755 58.3009 29.2011 58.2681 29.3766C57.9981 29.749 57.7654 29.9518 57.5231 30.1422C42.5392 41.9124 2.29111 40.8904 -1.57952e-06 60.0475C11.8546 55.0138 13.1244 57.8731 31.8604 68.2007C34.1848 64.4857 30.0213 65.8347 30.4499 65.5481C31.8446 63.9228 33.2054 77.0034 32.8234 77.0034C32.913 76.7532 33.0174 76.6452 33.2054 76.4118C34.6321 74.1898 36.0063 72.1229 37.4036 69.939C37.5478 69.7261 37.6688 69.6302 37.8326 69.4235C38.0008 69.2194 38.1263 69.1261 38.2904 68.8857C39.7067 67.4799 41.0846 66.2211 42.498 64.9311C42.5335 64.8998 42.5934 64.8773 42.5934 64.8773C42.5934 64.8773 42.437 64.9372 42.4139 65.0949C41.1873 66.8579 39.9838 68.4631 38.7395 70.2269C36.4456 75.4775 34.1924 80.5695 31.9393 85.6616C31.9369 85.816 31.9346 85.9704 31.8779 86.418C29.7898 96.8763 30.4163 107.013 32.4601 117.067C33.718 123.254 35.4378 129.348 36.9503 135.483C36.9503 135.483 36.9141 135.54 37.0515 135.617C37.6774 137.194 38.1661 138.693 38.6547 140.192C38.6547 140.192 38.7559 140.397 38.8742 140.618C42.585 150.071 47.4126 158.504 54.3933 165.674C57.3346 168.694 59.8351 172.143 62.5361 175.398C62.5361 175.398 62.4837 175.474 62.6433 175.503C63.6247 176.74 64.4465 177.949 65.2682 179.158C65.2682 179.158 65.246 179.182 65.3696 179.204C65.5302 179.374 65.5671 179.522 65.6041 179.669C65.7873 179.862 65.9705 180.054 66.2987 180.418C66.5197 180.731 66.5957 180.873 66.6541 181.016C66.6364 181.017 66.6607 180.991 66.7746 181.034C66.9594 181.218 67.0303 181.359 67.1022 181.501C67.1032 181.502 67.1055 181.504 67.2127 181.544C67.4621 181.683 67.5155 181.817 67.48 181.986C67.8026 182.329 68.1252 182.672 68.5968 183.208C68.8005 183.548 68.8553 183.695 68.9101 183.843C68.9101 183.843 68.9464 183.835 69.0549 183.868C69.3082 183.991 69.3729 184.121 69.4875 184.381C71.5523 187.783 73.7845 190.962 75.3389 194.444C76.9038 197.949 77.7417 201.772 78.9933 205.423C81.0137 211.316 81.6616 217.205 80.3322 223.426C79.7113 226.332 80.1172 229.549 80.5494 232.555C80.8717 234.797 81.9832 236.925 82.7433 239.104C82.8434 239.287 82.9435 239.469 83.1882 239.91C89.0071 250.789 90.1643 262.742 93.3143 274.687C94.1223 272.502 94.66 270.822 95.381 269.225C95.6245 268.685 96.3322 268.355 96.8278 267.929C97.1711 268.456 97.7493 268.953 97.821 269.514C98.4427 274.388 99.8151 278.991 102.466 283.169C102.466 283.169 102.436 283.197 102.588 283.252C108.093 290.398 114.085 296.543 124.165 297.75C124.57 294.313 124.932 291.136 125.328 287.963C125.41 287.306 125.617 286.665 125.766 286.017C126.453 286.232 127.203 286.335 127.813 286.683C129.319 287.541 130.76 288.51 132.227 289.434C131.783 285.939 130.016 283.38 127.786 281.138C125.113 278.451 122.138 276.04 119.656 273.194C117.143 270.313 114.249 267.355 112.95 263.896C107.426 249.184 106.103 234.142 111.07 218.902C112.073 215.824 113.097 212.715 113.66 209.54C114.827 202.948 113.372 196.451 112.425 189.958C111.338 182.514 110.634 175.067 111.75 167.388C111.84 166.643 111.965 166.072 112.075 165.335C112.131 164.73 112.204 164.291 112.254 163.718C112.322 163.428 112.412 163.274 112.481 162.977C112.526 162.555 112.593 162.276 112.61 161.911C112.645 161.581 112.729 161.335 112.817 160.908C112.902 160.502 112.984 160.276 113.017 159.99C112.966 159.812 113.02 159.732 113.132 159.565C113.163 159.363 113.194 159.286 113.21 159.078C113.281 158.799 113.368 158.651 113.438 158.429C113.422 158.355 113.505 158.229 113.5 158.042C113.99 156.139 114.485 154.424 114.98 152.533C115.914 150.313 116.848 148.27 117.81 146.191C117.838 146.156 117.9 146.125 117.9 146.125C117.9 146.125 117.763 146.208 117.747 146.388C117.062 148.83 116.394 151.091 115.689 153.54C115.204 155.697 114.755 157.667 114.322 159.784C114.239 160.313 114.139 160.695 114.071 161.247C113.978 161.849 113.853 162.282 113.754 162.878C113.711 163.47 113.643 163.9 113.601 164.526C113.547 165.504 113.466 166.285 113.399 167.249C113.356 167.668 113.298 167.904 113.305 168.319C113.307 169.62 113.247 170.742 113.217 172.051C113.229 173.114 113.211 173.992 113.268 175.052C113.418 177.165 113.493 179.095 113.627 181.202C113.958 183.215 114.229 185.052 114.58 187.434C115.645 184.779 116.487 182.68 117.337 180.452C117.481 180.239 117.616 180.155 117.759 180.09C117.767 180.11 117.737 180.08 117.801 179.98C117.97 179.764 118.075 179.647 118.163 179.436C118.146 179.342 118.196 179.158 118.183 178.989C119.763 175.615 121.932 172.917 125.057 170.34C122.795 173.844 120.857 176.848 118.873 180.023C116.984 185.159 116.087 190.26 116.175 195.582C116.209 197.683 116.922 198.671 118.841 199.494C137.987 207.706 157.579 214.578 177.881 219.339C183.235 220.594 188.634 221.657 194.192 222.784C195.064 222.926 195.756 223.091 196.562 223.235C196.936 223.361 197.196 223.507 197.555 223.523C198.067 223.494 198.479 223.595 199.056 223.657C199.661 223.695 200.101 223.773 200.689 223.826C201.024 223.862 201.212 223.921 201.561 223.953C202.258 224.041 202.793 224.158 203.514 224.252C204.58 224.456 205.46 224.683 206.348 224.916C206.357 224.921 206.374 224.908 206.374 224.908C206.524 224.956 206.674 225.004 206.902 225.029C206.98 225.007 206.99 224.993 207.015 224.875C207.443 224.86 207.847 224.963 208.415 225.011C209.151 225.028 209.722 225.101 210.484 225.145C211.642 225.272 212.611 225.426 213.579 225.58C213.579 225.58 213.568 225.616 213.735 225.553C214.247 225.533 214.592 225.574 215.128 225.587C216.301 225.707 217.281 225.855 218.268 226C218.274 225.997 218.282 225.983 218.282 225.983C218.756 225.986 219.23 225.99 220.02 225.958C250.826 227.884 280.898 224.809 310.583 218.824C306.745 212.641 303.061 206.705 299.256 200.661C297.203 196.265 295.27 191.977 293.222 187.571C292.079 184.389 291.051 181.325 290.022 178.262C290.23 178.194 290.437 178.126 290.644 178.058C291.747 181.067 292.85 184.076 294.049 187.214C296.272 191.574 298.397 195.807 300.504 200.057C300.486 200.074 300.508 200.029 300.607 200.078C300.822 200.239 300.867 200.374 300.906 200.599C300.97 200.665 301.015 200.843 301.125 200.912C301.29 201.141 301.345 201.301 301.462 201.482C301.524 201.504 301.652 201.535 301.797 201.563C302.011 201.761 302.081 201.929 302.136 202.101C302.121 202.104 302.116 202.133 302.29 202.12C302.638 202.563 302.811 203.019 303.006 203.492C303.027 203.51 303.047 203.561 303.22 203.535C303.643 204.087 303.893 204.664 304.157 205.212C304.172 205.183 304.128 205.231 304.297 205.238C304.676 205.701 304.887 206.157 305.109 206.597C305.12 206.58 305.085 206.6 305.25 206.613C305.56 206.972 305.704 207.318 305.847 207.612C305.846 207.56 305.86 207.662 306.015 207.673C306.265 207.955 306.36 208.227 306.461 208.465C306.467 208.43 306.441 208.496 306.611 208.488C307.262 208.541 307.744 208.601 308.413 208.686C308.043 207.424 307.652 206.428 307.464 205.395C305.765 196.056 304.007 186.725 302.488 177.356C302.044 174.62 302.309 171.768 302.265 168.82C302.247 168.475 302.212 168.278 302.009 168.014C301.53 164.257 301.218 160.569 300.776 156.74C300.589 153.472 300.476 150.344 300.496 147.216C300.507 145.494 300.742 143.773 300.897 141.836C300.919 139.816 300.919 138.012 300.919 136.208C301.049 136.209 301.18 136.21 301.31 136.212C301.46 139.403 301.61 142.594 301.793 145.994C301.987 149.768 302.147 153.333 302.369 157.078C302.812 160.86 303.128 164.471 303.589 168.063C304.345 173.944 305.194 179.813 306.059 185.838C306.198 186.511 306.281 187.033 306.417 187.66C306.461 187.842 306.452 187.92 306.497 188.139C306.565 188.579 306.581 188.878 306.696 189.332C307.012 190.694 307.228 191.901 307.498 193.219C307.55 193.492 307.546 193.654 307.645 193.933C307.78 194.351 307.813 194.652 307.915 195.121C309.89 205.087 312.958 214.529 316.767 223.743C316.767 223.743 316.746 223.758 316.882 223.848C317.623 225.271 318.191 226.621 318.835 227.935C322.02 234.433 325.225 240.921 328.422 247.412C328.568 247.626 328.714 247.841 328.867 248.177C328.874 248.3 328.897 248.295 329.009 248.384C329.195 248.743 329.27 249.013 329.327 249.285C329.309 249.285 329.322 249.252 329.42 249.307C329.622 249.48 329.672 249.617 329.786 249.887C331.095 253.657 332.675 257.242 333.382 260.991C334.435 266.581 336.453 271.71 338.957 276.527C339.845 275.996 340.591 275.55 341.337 275.104C341.682 275.899 342.038 276.69 342.368 277.491C343.185 279.47 343.712 281.631 344.849 283.404C349.105 290.04 355.059 294.949 361.641 299.149C362.121 299.455 362.67 299.651 363.4 300C363.999 296.877 364.556 294.006 365.099 291.132C365.477 289.126 366.048 288.909 367.641 290.183C369 291.269 370.364 292.348 372.107 293.734C371.787 289.252 370.143 286.029 367.257 283.467C360.237 277.234 357.3 269.173 357.325 260.091C357.337 255.584 358.627 251.096 359.058 246.572C359.672 240.115 359.708 233.592 360.57 227.174C361.844 217.688 363.138 208.153 365.358 198.862C366.97 192.115 370.096 185.728 372.525 179.01C373.464 176.93 374.424 175.021 375.383 173.111C375.534 173.175 375.685 173.238 375.835 173.302C375.06 175.262 374.285 177.222 373.482 179.333C373.386 179.678 373.318 179.871 373.272 180.169C373.259 180.421 373.175 180.533 373.034 180.789C371.107 187.801 369.234 194.645 367.241 201.454C366.707 203.28 367.15 204.541 368.573 205.694C371.756 208.274 374.806 211.023 378.055 213.513C384.3 218.299 391.35 221.66 398.74 224.678C399.506 224.96 400.105 225.243 400.819 225.498C401.076 225.528 401.219 225.587 401.503 225.63C401.88 225.749 402.117 225.884 402.359 226.015C402.363 226.012 402.371 226.001 402.559 226C411.89 228.573 421.18 229.754 430.69 229.066C432.206 228.956 433.751 229.256 435.283 229.366C436.391 229.358 437.498 229.35 439.021 229.326C441.462 229.346 443.488 229.382 445.513 229.418C446.162 229.386 446.811 229.353 447.821 229.263C454.512 228.61 460.864 228.084 466.679 223.316C462.182 222.082 458.37 220.825 454.465 220.016C449.193 218.923 443.85 218.174 438.346 217.289C436.325 216.846 434.493 216.39 432.662 215.935C432.727 215.674 432.792 215.414 432.857 215.154C435.286 215.66 437.716 216.166 440.289 216.648C440.718 216.672 441.004 216.72 441.344 216.721C441.56 216.633 441.685 216.679 441.954 216.85C442.799 217.005 443.465 217.222 444.131 217.224C454.542 217.257 464.51 219.226 473.999 223.926C474.408 224.122 474.687 224.308 474.966 224.495C474.966 224.495 474.971 224.573 475.155 224.548C478.002 225.475 480.663 226.427 483.325 227.378ZM162.384 124.599C162.384 124.599 162.368 124.42 162.16 124.429C162.16 124.429 161.953 124.44 161.847 124.626C161.748 124.736 161.626 124.803 161.129 124.832C160.793 124.355 160.457 123.878 160.076 123.443C160.076 123.443 160.131 123.415 159.773 123.45C157.045 122.345 154.577 120.944 153.203 117.872C151.006 115.986 148.953 114 148.082 110.898C147.794 110.662 147.349 110.483 147.24 110.183C145.953 106.617 144.291 103.115 143.576 99.4322C142.751 95.1817 142.701 90.7707 142.491 86.4209C142.453 85.6252 143.259 84.789 143.792 83.7764C143.792 83.7764 143.825 83.5512 143.809 83.2095C144.145 82.8691 144.481 82.5288 144.766 82.1355C144.766 82.1355 144.8 82.2005 144.761 81.8518C145.572 79.3944 148.25 77.1263 150.344 77.0345C150.344 77.0345 150.363 77.1 150.448 76.8518C150.607 76.8102 150.765 76.7685 150.796 76.6601C150.796 76.6601 150.912 76.7468 150.996 76.4118C151.317 76.3437 151.639 76.2756 152.093 76.2043C152.093 76.2043 152.178 76.1026 152.226 75.7715C152.7 75.5936 153.173 75.4156 153.605 75.2102C153.605 75.2102 153.612 75.2588 153.74 74.9793C154.026 74.9261 154.312 74.8729 154.62 74.8421C154.62 74.8421 154.65 74.8534 154.678 74.5227C158.624 71.5136 163.467 71.282 167.871 71.7024C175.562 72.4366 182.99 74.6206 188.739 80.4304C190.889 82.6037 193.398 84.4864 193.991 87.7087C193.991 87.7087 193.935 87.7628 194.274 87.7675C194.418 88.111 194.562 88.4546 194.77 88.7674C194.77 88.7674 194.733 88.8276 195.079 88.7967C195.937 89.1419 196.909 89.4431 195.843 90.8145C196.008 91.0158 196.172 91.217 196.664 91.4184C197.151 91.4466 197.638 91.4748 198.308 91.5136C195.836 84.7973 194.586 78.1035 194.975 71.1925C195.163 67.8629 195.513 64.5095 196.205 61.2549C196.557 59.5995 197.827 58.1389 198.884 56.4168C198.966 56.1671 199.047 55.9174 198.887 55.4758C199.154 55.0957 199.422 54.7156 199.656 54.2746C199.656 54.2746 199.667 54.3432 199.613 53.9798C200.522 52.3565 201.431 50.7333 202.46 48.9286C202.552 48.8141 202.661 48.7197 202.835 48.3816C202.981 48.1667 203.127 47.9518 203.313 47.4682C203.464 47.2562 203.616 47.0442 203.812 46.5431C204.092 46.3134 204.372 46.0837 204.689 45.5237C205.313 44.7211 205.937 43.9184 206.668 42.9183C206.763 42.7954 206.884 42.7097 207.07 42.3346C208.726 39.6383 211.15 37.87 214.149 36.3354C214.946 35.7697 215.676 35.0493 216.553 34.6668C219.414 33.4192 222.284 32.1654 225.234 31.16C228.139 30.1703 230.648 31.1603 231.894 33.5217C231.997 33.7606 232.101 33.9995 232.518 34.3155C233.189 35.376 233.859 36.4365 234.751 37.6452C234.968 37.9199 235.185 38.1946 235.633 38.6593C235.738 39.0376 235.843 39.4159 236.251 39.904C236.743 40.7557 237.339 41.5648 237.71 42.4661C240.432 49.0749 241.074 56.0193 240.44 63.0312C240.055 67.2867 239.15 71.5215 238.133 75.6813C237.689 77.4976 236.379 79.1027 235.402 81.0595C235.261 81.2757 235.121 81.4919 234.951 82.0206C234.662 82.393 234.373 82.7654 234.014 83.39C233.871 83.6033 233.728 83.8165 233.554 84.363C233.088 85.0192 232.622 85.6754 232.048 86.5226C231.959 86.6421 231.851 86.7396 231.751 87.13C232.361 87.0775 233.131 87.2455 233.556 86.9377C236.934 84.4918 240.745 83.1068 244.811 82.6157C248.154 82.2119 251.552 82.2027 254.928 82.1423C259.683 82.0573 264.227 83.1382 268.537 85.0893C269.544 85.5454 270.315 86.5239 271.261 87.3615C271.261 87.3615 271.38 87.3559 271.759 87.2888C275.669 88.4376 278.168 91.328 280.448 94.4339C281.042 95.2429 281.852 96.4432 281.639 97.2049C280.251 102.15 278.667 107.059 275.25 111.078C274.803 111.604 274.044 111.867 273.472 112.281C273.472 112.281 273.461 112.231 273.405 112.479C273.269 112.571 273.133 112.663 273.038 112.765C273.038 112.765 273.013 112.731 273.014 113.043C272.791 113.189 272.569 113.334 272.378 113.558C272.378 113.558 272.314 113.502 272.455 113.835C271.553 114.556 270.651 115.277 269.782 116.022C269.782 116.022 269.772 115.983 269.689 116.216C269.552 116.3 269.415 116.385 269.319 116.475C269.319 116.475 269.293 116.442 269.318 116.798C268.634 117.221 267.95 117.644 267.265 118.116C267.265 118.116 267.216 118.115 267.284 118.456C266.83 118.675 266.377 118.895 266.006 119.245C266.006 119.245 265.943 119.105 265.929 119.428C265.429 120.281 264.929 121.134 264.282 122.238C263.802 121.877 263.309 121.506 262.544 121.168C262.331 121.328 262.117 121.488 261.894 121.993C261.522 122.424 261.229 123.004 260.76 123.256C259.634 123.864 258.457 124.417 257.242 124.813C255.093 125.514 252.935 126.39 250.718 126.638C247.076 127.046 243.382 126.969 239.716 127.202C239.033 127.246 238.382 127.789 237.917 128.193C238.041 128.278 238.138 128.386 238.578 128.547C240.31 128.547 241.805 128.951 242.798 130.849C243.451 131.033 244.243 131.042 244.734 131.43C247.06 133.262 249.397 135.101 251.532 137.143C252.461 138.033 252.914 139.418 253.878 140.671C254.095 141.102 254.312 141.532 254.868 142.016C255.448 142.554 256.148 143.011 256.575 143.651C257.026 144.327 257.193 145.187 257.526 145.948C258.616 148.44 259.908 150.862 260.778 153.428C261.777 156.376 262.698 159.411 263.09 162.48C263.318 164.262 262.441 166.186 261.952 168.344C261.959 168.554 261.966 168.765 262.207 169.243C262.582 173.756 261.121 177.024 258.014 178.206C252.021 180.487 245.785 180.537 239.536 179.815C235.413 179.339 231.6 177.827 228.234 175.363C225.392 173.283 222.365 171.359 219.902 168.886C217.3 166.274 214.761 163.481 213.712 159.673C212.846 156.528 211.574 153.494 210.482 150.411C210.157 152.315 210.428 154.257 210.105 156.095C209.189 161.313 208.059 166.514 205.639 171.279C204.852 172.827 203.5 174.088 202.382 175.47C202.382 175.47 202.402 175.488 202.405 175.829C201.555 176.884 200.705 177.94 200.017 179.151C200.017 179.151 199.845 179.007 199.955 179.349C198.79 180.913 197.83 182.7 196.414 183.988C194.082 186.11 191.653 188.272 188.91 189.764C184.049 192.407 178.702 193.352 173.117 193.135C168.602 192.959 164.391 188.159 164.974 183.266C164.935 183.113 164.852 182.992 164.391 182.845C161.311 178.73 161.522 173.614 161.348 169.069C161.084 162.23 161.639 155.174 165.011 148.796C166.423 146.125 167.359 143.164 169.025 140.679C170.263 138.831 172.329 137.537 174.027 135.996C174.027 135.996 174.028 135.996 174.051 135.693C174.275 135.564 174.5 135.435 174.72 135.259C174.72 135.259 174.763 135.279 174.619 134.949C175.037 134.375 175.408 133.758 175.884 133.237C176.625 132.427 177.438 131.683 178.16 130.584C177.625 130.202 177.091 129.82 176.557 129.439C176.683 129.207 176.809 128.976 176.936 128.744C177.987 129.315 179.038 129.886 180.325 130.349C180.549 130.222 180.774 130.094 181.037 129.666C181.338 129.459 181.638 129.253 181.937 129.031C181.937 129.031 181.947 129.043 181.931 128.79C181.927 128.705 181.923 128.62 181.488 128.538C179.466 128.549 177.444 128.56 175.419 128.946C175.4 131.101 174.022 130.34 172.795 130.251C172.913 129.594 173.005 129.082 172.692 128.561C169.677 127.829 166.656 127.122 163.656 126.332C163.321 126.244 163.11 125.687 162.637 125.209C162.566 125.064 162.495 124.919 162.384 124.599ZM136.937 136.746C137.024 136.613 137.144 136.565 137.423 136.448C137.423 136.448 137.614 136.393 137.728 136.149C137.888 136.078 138.047 136.006 138.324 135.734C138.463 135.673 138.602 135.612 138.881 135.272C142.52 132.982 146.366 131.4 151.096 131.705C151.301 131.739 151.506 131.772 151.994 131.685C153.857 132.137 155.72 132.589 157.815 133.037C157.97 133.071 158.106 133.141 158.5 133.229C158.64 133.341 158.781 133.453 159.062 133.555C159.062 133.555 159.155 133.661 159.495 133.679C161.28 134.198 161.838 135.224 160.914 136.943C160.337 138.015 159.842 139.132 159.289 140.456C159.289 140.456 159.156 140.643 159.162 140.95C158.845 141.461 158.528 141.972 158.223 142.493C158.223 142.493 158.208 142.492 158.208 142.759C158.078 142.873 157.948 142.987 157.807 143.279C157.807 143.279 157.689 143.413 157.678 143.734C156.858 144.904 156.039 146.073 155.123 147.457C155.062 147.506 155.001 147.555 154.908 147.845C154.78 147.932 154.651 148.019 154.503 148.073C154.503 148.073 154.535 148.094 154.467 148.382C154.07 148.793 153.672 149.203 153.116 149.542C153.116 149.542 153.267 149.628 153.172 149.916C152.204 150.812 151.236 151.708 150.278 152.671C150.278 152.671 150.21 152.667 150.134 152.941C149.729 153.171 149.324 153.402 148.923 153.642C148.923 153.642 148.914 153.638 148.853 153.858C148.764 154.009 148.632 154.068 148.334 154.161C148.334 154.161 148.157 154.182 148.023 154.411C147.864 154.473 147.704 154.535 147.532 154.568C147.532 154.568 147.555 154.589 147.473 154.802C147.37 154.938 147.234 154.989 146.952 155.09C146.952 155.09 146.777 155.122 146.614 155.399C145.525 155.897 144.436 156.395 143.217 156.991C143.217 156.991 143.054 156.98 142.835 157.246C137.901 159.265 132.962 159.3 128.037 157.237C125.283 156.084 125.201 155.801 126.491 152.711C126.558 152.555 126.626 152.4 126.665 151.98C126.766 151.84 126.866 151.699 126.969 151.221C128.757 146.253 131.248 141.74 135.443 138.002C135.747 137.792 136.05 137.582 136.371 137.389C136.371 137.389 136.355 137.373 136.429 137.147C136.571 137.089 136.713 137.032 136.855 136.938C136.855 136.938 136.89 136.948 136.937 136.746ZM385.084 45.4469C385.084 45.4469 385.085 45.4488 385.329 45.4904C385.41 45.6266 385.491 45.7629 385.549 45.9109C385.549 45.9109 385.565 45.8898 385.851 46.0058C386.544 46.8923 387.237 47.7789 388.157 48.8131C388.399 49.187 388.642 49.5608 389.14 50.0968C389.37 50.5354 389.599 50.974 389.776 51.4569C389.776 51.4569 389.804 51.3943 390.021 51.4994C390.065 51.6482 390.11 51.7969 390.277 52.0371C390.277 52.0371 390.29 52.1892 390.528 52.3376C390.588 52.51 390.648 52.6825 390.665 52.8667C390.665 52.8667 390.697 52.8373 390.95 52.9804C391.142 53.4124 391.334 53.8443 391.643 54.4192C391.643 54.4192 391.655 54.6035 391.86 54.7363C391.903 54.8875 391.946 55.0386 392.111 55.3319C392.111 55.3319 392.125 55.5191 392.338 55.6547C392.381 55.8105 392.423 55.9662 392.649 56.3954C394.954 60.9064 397.26 65.4175 399.8 70.0428C399.861 70.1988 399.922 70.3549 400.171 70.6381C400.338 70.7894 400.504 70.9408 400.963 71.116C401.125 71.3471 401.287 71.5783 401.724 71.9183C401.817 72.1544 401.911 72.3905 402.056 72.6294C402.056 72.6294 402.048 72.6814 402.371 72.5296C402.677 72.9208 402.984 73.312 403.623 73.7553C405.195 74.7765 406.797 75.7571 408.317 76.8507C408.649 77.0897 408.937 77.8358 408.799 78.1601C408.65 78.5124 407.971 78.8546 407.54 78.8345C406.175 78.771 404.741 78.7577 403.475 78.3172C401.451 77.6126 399.541 76.5805 397.22 75.6523C392.899 75.0463 389.406 72.6561 385.9 70.3334C385.178 69.8552 384.699 69.0123 384.075 68.2424C384.075 68.2424 383.976 68.2599 383.735 68.2173C383.564 68.0577 383.393 67.8982 383.225 67.7358C383.225 67.7358 383.222 67.7388 382.879 67.7482C379.851 66.5401 377.486 64.6472 376.289 61.2152C376 60.9018 375.71 60.5883 375.078 60.2559C374.923 59.9039 374.769 59.552 374.503 59.3564C374.503 59.3564 374.597 59.1894 374.247 59.2141C372.709 58.6765 371.669 57.8329 372.093 56.0238C372.093 56.0238 372.254 55.9708 371.904 55.96C371.521 55.1882 371.137 54.4164 370.703 53.4045C370.549 53.2235 370.395 53.0425 369.914 52.8731C367.98 52.2686 368.243 50.5347 367.915 49.1559C367.915 49.1559 367.976 49.0938 367.637 49.0896C367.229 48.2075 366.821 47.3253 366.062 46.4981C365.912 46.6614 365.631 46.8247 365.631 46.988C365.632 50.9453 364.9 54.7265 362.244 57.7822C360.29 60.0313 358.017 62.0044 355.821 64.4175C355.218 65.0853 354.615 65.7531 353.965 66.7559C353.59 67.4987 353.329 68.3324 352.82 68.9679C350.923 71.3361 350.725 74.1115 350.658 76.9611C350.643 77.5907 350.299 78.2125 350.107 78.8378C349.513 78.3982 348.92 77.9586 347.999 77.4646C346.923 76.0577 345.612 74.7702 344.817 73.2193C343.05 69.7752 341.153 66.3145 340.057 62.638C339.26 59.9635 339.269 56.8815 339.639 54.0761C339.988 51.4394 341.231 48.9076 342.207 46.3789C342.377 45.9391 343.18 45.7433 343.706 45.4377C343.706 45.4377 343.696 45.4277 343.69 45.0748C344.168 44.425 344.646 43.7752 345.326 42.9889C345.423 42.7692 345.52 42.5496 345.596 42.0233C345.74 41.7707 345.885 41.5182 346.072 40.9762C346.351 40.7458 346.63 40.5153 346.981 40.0124C347.255 39.7845 347.53 39.5565 347.881 39.0778C348.037 38.8768 348.193 38.6758 348.48 38.196C348.567 37.7984 348.654 37.4008 348.79 36.7815C347.949 37.044 347.347 37.1674 346.799 37.4136C342.808 39.2087 338.617 39.7793 334.261 39.9138C325.999 40.169 318.102 38.1316 310.194 36.3008C303.865 34.8355 297.554 33.6388 291.035 33.8271C289.226 33.8793 287.417 33.9198 285.177 33.9533C284.898 34.022 284.619 34.0907 284.192 33.9524C284.173 32.9319 283.998 31.7953 285.604 31.9831C285.604 31.9831 285.625 32.0194 285.633 31.6749C286.542 28.9101 288.958 28.4801 291.237 27.7963C291.237 27.7963 291.335 28.0001 291.359 27.6312C292.005 27.4141 292.651 27.1971 293.42 26.9974C293.42 26.9974 293.502 26.9025 293.547 26.5746C295.6 25.6545 297.573 24.4122 299.722 23.8822C304.02 22.8223 308.408 22.1183 312.776 21.3689C313.271 21.2839 313.879 21.8494 314.801 22.1884C315.299 22.1759 315.797 22.1634 316.586 21.9032C324.527 21.1404 332.187 23.1146 339.913 24.3692C341.213 24.5804 342.397 25.5069 343.66 26.0555C343.66 26.0555 343.607 26.0637 343.995 25.975C345.296 26.4442 346.597 26.9134 348.003 27.4636C348.003 27.4636 348.134 27.4413 348.501 27.3825C348.885 27.5788 349.268 27.7752 349.67 27.9697C349.67 27.9697 349.661 27.9538 349.995 27.8563C350.332 28.0576 350.669 28.2589 350.991 28.49C350.991 28.49 350.984 28.5229 351.317 28.3976C351.644 28.5013 351.971 28.6051 352.297 28.7089C352.015 29.0104 351.751 29.5502 351.448 29.5722C350.131 29.6682 348.803 29.6134 347.478 29.6134C349.157 30.4493 350.874 30.7424 352.583 31.0754C355.062 31.5581 356.01 33.4172 355.056 35.7016C354.828 36.2495 354.922 36.9315 355.194 37.5158C355.7 36.8713 356.106 36.0951 356.738 35.6137C357.65 34.918 358.729 33.9997 359.73 34.0088C360.457 34.0153 361.265 35.3026 361.863 36.1421C362.415 36.9157 362.735 37.8538 363.21 38.8273C364.311 37.441 365.185 36.594 365.795 39.0892C365.893 39.3308 365.991 39.5723 366.39 39.9058C366.885 40.3577 367.381 40.8095 367.884 40.9108C367.469 39.9246 366.971 38.963 366.666 37.9437C366.455 37.2356 366.509 36.4482 366.618 35.4238C369.548 36.5829 372.478 37.7421 375.662 38.9291C375.867 39.0681 376.072 39.207 376.597 39.37C377.301 39.8262 378.006 40.2824 378.953 40.7809C379.145 40.9292 379.336 41.0776 379.798 41.2303C379.997 41.3987 380.195 41.567 380.43 41.7231C380.43 41.7231 380.444 41.7584 380.706 41.7772C380.811 41.9107 380.916 42.0441 381.197 42.218C381.315 42.2683 381.397 42.3532 381.744 42.5572C382.299 43.0265 382.854 43.4958 383.582 44.0051C383.582 44.0051 383.692 44.1443 383.891 44.1686C384.024 44.2481 384.074 44.3634 384.276 44.629C384.391 44.7568 384.506 44.8845 384.848 45.0622C384.926 45.1903 385.004 45.3185 385.084 45.4469ZM412.76 93.4201C412.76 93.4201 412.776 93.4115 413.069 93.4437C413.31 93.7129 413.551 93.9821 414.095 94.3393C419.509 99.2632 423.727 105.031 426.681 112.091C429.535 118.435 430.286 125.166 430.099 132.007C429.962 137.021 429.457 142.024 429.195 147.036C429.161 147.69 429.4 148.558 429.841 149.002C431.664 150.837 433.614 152.548 435.607 154.388C430.743 156.442 428.293 156.142 425.816 153.565C424.904 152.617 423.709 151.939 422.498 151.029C422.521 150.992 422.82 150.519 423.321 149.727C421.238 148.966 419.405 148.168 417.499 147.629C414.007 146.642 410.384 146.062 406.971 144.867C391.87 139.581 382.144 123.68 385.967 108.214C386.483 106.199 386.998 104.183 387.514 102.168C387.743 102.226 387.971 102.284 388.199 102.343C387.677 105.241 387.155 108.14 386.641 111.34C386.619 111.64 386.596 111.94 386.713 112.576C386.672 113.907 386.631 115.238 386.65 116.859C386.71 117.348 386.77 117.838 386.934 118.565C386.923 118.651 386.912 118.736 386.978 119.172C390.419 132.773 399.304 140.74 412.772 143.83C417.15 144.835 421.617 145.459 425.438 148.082C425.585 148.183 425.862 148.095 426.067 148.095C428.012 141.081 427.747 126.582 425.242 114.071C422.982 107.893 419.434 102.483 415.1 97.3468C414.967 97.2594 414.901 97.1361 414.648 96.8388C414.222 96.3205 413.797 95.8022 413.133 95.1497C413.03 95.0022 412.927 94.8548 412.657 94.6365C412.55 94.5656 412.483 94.4674 412.233 94.2332C412.137 94.1006 412.042 93.968 411.659 93.717C408.516 91.2646 405.373 88.8121 402.229 86.3597C406.135 87.9714 409.782 90.0361 412.762 93.308C412.762 93.308 412.756 93.4044 412.76 93.4201ZM85.1479 52.5675C85.0214 52.5173 84.8949 52.467 84.4526 52.4234C84.2423 52.4144 84.0321 52.4055 83.8306 52.411C83.8306 52.411 83.8281 52.3976 83.8075 52.7214C83.663 53.2376 83.5185 53.7539 83.6353 54.3063C83.7844 54.4458 83.9335 54.5854 84.0826 54.725C83.9864 54.808 83.8902 54.891 83.7939 54.974C83.6541 54.739 83.5142 54.504 83.0017 54.2637C80.0581 55.3805 77.1304 56.542 74.1618 57.5876C73.2356 57.9138 72.1989 57.9269 71.0452 58.0525C71.0452 58.0525 70.8777 58.0214 70.8519 57.9907C70.8519 57.9907 70.8485 58.0307 70.7916 58.3442C70.3384 58.5354 69.8852 58.7265 69.267 59.1359C69.0084 59.2005 68.7498 59.2651 68.0687 59.3406C67.7939 59.2788 67.5192 59.217 67.1583 59.1048C67.1583 59.1048 67.0616 59.1292 67.0334 59.4187C66.9018 59.5503 66.7701 59.6818 66.4781 60.0475C66.2137 60.1332 65.9494 60.219 65.96 60.5775C67.7076 60.7677 69.4764 60.8452 71.1989 61.1691C76.6933 62.2022 81.2777 65.2117 85.8323 68.2007C87.0601 69.0066 87.9586 70.3133 89.3543 71.4291C89.8578 71.8838 90.3613 72.3384 91.2024 72.8323C94.4982 74.9854 97.7941 77.1385 101.35 79.3442C101.568 79.4846 101.785 79.6249 102.396 79.7867C105.78 80.2877 109.167 80.7736 112.542 81.326C112.755 81.3608 112.883 81.9144 113.04 82.3573C113.04 82.3573 113.045 82.4883 113.089 82.8497C112.819 83.3514 112.672 84.1246 112.259 84.3116C108.983 85.7953 105.751 87.4906 102.324 88.5052C95.6352 90.4849 88.7274 90.8009 81.8146 89.9226C80.4077 89.7438 79.0967 88.8119 77.3656 88.1931C75.4705 87.8208 73.2051 88.2138 72.3122 85.7675C72.3122 85.7675 72.3016 85.7725 72.0665 85.7562C71.954 85.6512 71.8415 85.5462 71.579 85.3525C71.579 85.3525 71.4052 85.3393 71.0901 85.3614C70.8606 85.1841 70.6311 85.0068 70.3674 84.894C70.3674 84.894 70.4199 84.8431 70.0499 84.8992C69.5492 84.5535 69.0485 84.2078 68.5119 83.7067C68.5119 83.7067 68.4868 83.5491 68.1903 83.5299C67.9989 83.4792 67.8076 83.4286 67.4647 83.614C66.7268 83.1101 65.9889 82.6062 65.1573 82.0116C65.1573 82.0116 65.0269 82.0171 64.732 82.006C64.6056 81.8655 64.4793 81.7249 64.3461 81.6395C64.3461 81.6395 64.3824 81.5974 64.039 81.6487C63.6759 81.329 63.3129 81.0093 62.9228 80.7305C62.9228 80.7305 62.9633 80.7027 62.6024 80.7302C61.0467 79.9761 59.0617 79.8941 58.0609 77.857C57.9385 77.7655 57.8464 77.6499 57.4702 77.4584C56.9071 77.2034 56.3441 76.9484 55.6339 76.6268C56.0515 78.2342 56.3924 79.5467 56.7748 80.7289C56.7748 80.7289 56.7149 80.8519 57.0504 80.888C57.7763 82.6817 58.5022 84.4754 59.1979 86.2903C59.1979 86.2903 59.2348 86.2899 59.5627 86.3568C61.0291 88.9477 62.1378 91.6078 61.1304 94.9784C61.178 95.1795 61.2255 95.3806 61.6008 95.7169C61.6824 98.6772 62.067 101.668 61.7773 104.591C61.2958 109.449 60.4252 114.272 59.6228 119.093C59.3749 120.583 58.8156 122.021 58.2899 123.776C58.3022 123.982 58.3145 124.189 58.5829 124.682C58.9392 129.177 59.1799 133.685 59.7106 138.16C59.9124 139.862 60.9097 141.456 61.2838 143.157C61.445 143.889 61.1795 145.029 60.6646 145.491C60.2903 145.827 59.0614 145.564 58.4434 145.19C57.6711 144.722 57.0491 143.926 56.5148 143.165C55.5018 141.721 54.5973 140.202 53.6022 138.509C53.5311 138.374 53.4202 138.296 52.9177 138.3C52.4812 138.052 51.9437 137.894 51.6233 137.541C47.5468 133.042 44.8686 127.725 42.5418 122.178C40.0888 116.33 38.939 110.29 39.1962 103.948C39.4358 98.0404 39.1436 92.082 39.8195 86.2305C40.3393 81.7305 41.9708 77.354 43.1977 72.9476C43.3136 72.5318 44.0734 72.2949 44.5343 71.975C44.7685 72.4048 45.2121 72.8389 45.2036 73.2639C45.138 76.5347 44.9361 79.8028 44.8732 83.0736C44.8198 85.8562 44.8954 88.6413 44.9138 91.4253C45.1031 91.4165 45.2923 91.4077 45.4815 91.3989C46.0128 84.3779 46.544 77.3568 47.0685 70.4248C48.5232 69.92 49.6796 69.5187 51.0081 68.9077C51.5718 69.2896 52.1356 69.6715 52.9294 70.0625C52.9294 70.0625 53.159 70.0799 53.4346 69.934C53.3432 69.3561 53.4423 68.6112 53.1157 68.2398C52.6353 67.6937 51.85 67.4161 51.1966 67.0208C49.3392 65.8968 49.4292 64.7633 51.2317 63.5526C52.3267 62.8171 53.1731 61.7124 54.098 60.4188C53.3976 59.7609 52.6438 58.4961 52.006 58.552C49.5 58.7716 49.5621 57.0711 50.0419 55.8047C51.1581 52.8583 52.5882 50.0195 54.0621 47.2271C54.43 46.5301 55.4459 46.1742 56.1502 45.622C56.1502 45.622 56.1917 45.616 56.044 45.2732C56.0613 44.9708 55.9732 44.605 56.1116 44.3753C58.7676 39.9693 62.5973 36.9444 67.4242 35.2927C71.1436 34.02 74.9589 33.0251 78.7387 31.9311C81.9012 31.0158 85.0501 30.0383 88.2472 29.2618C93.8927 27.8906 98.5842 25.0523 102.363 20.6487C102.696 20.2605 103.365 20.0412 103.899 19.9965C104.148 19.9758 104.715 20.5916 104.684 20.8671C104.283 24.385 104.518 28.1001 101.889 31.0211C101.889 31.0211 101.842 30.9467 101.931 31.3294C101.893 31.7861 101.906 32.2541 101.809 32.6978C100.895 36.8455 97.9996 39.9384 95.9158 43.4493C95.2759 44.5276 93.7414 45.0762 92.6662 45.9049C92.6662 45.9049 92.628 45.8558 92.6579 46.2211C92.1252 46.6197 91.5925 47.0184 91.0171 47.4776C91.0171 47.4776 90.9551 47.5183 91.0402 47.8219C90.7753 47.9262 90.5105 48.0305 90.3519 48.1891C90.3519 48.1891 90.2532 48.1218 90.2749 48.4628C89.933 48.6334 89.591 48.804 89.3019 49.1392C89.3019 49.1392 89.2679 48.9697 89.2458 49.2782C88.9762 49.3784 88.7067 49.4787 88.4938 49.6032C88.4938 49.6032 88.4439 49.5668 88.435 49.9042C88.0838 50.0456 87.7326 50.187 87.5596 50.3759C87.5596 50.3759 87.3785 50.3422 87.382 50.6494C86.9664 51.0815 86.5509 51.5135 85.996 52.1779C85.7415 52.2522 85.4869 52.3265 85.2333 52.4117C85.2333 52.4117 85.2225 52.4106 85.1479 52.5675ZM497.107 197.477C497.172 197.319 497.289 197.228 497.476 197.174C497.476 197.174 497.494 197.144 497.524 196.84C498.024 196.168 498.525 195.497 499.026 194.826C499.199 194.933 499.372 195.041 499.544 195.148C499.085 196.046 498.626 196.943 498.112 198.032C498.112 198.032 498.032 198.213 498.036 198.571C497.621 199.876 497.207 201.182 496.812 202.865C496.785 203.618 496.759 204.372 496.89 205.446C496.722 207.106 496.553 208.767 496.372 210.731C496.334 211.034 496.296 211.336 496.391 211.816C496.321 212.075 496.25 212.335 496.16 212.996C495.601 217.785 494.815 222.515 492.752 227.145C490.346 223.839 492.275 207.348 495.595 199.904C495.904 199.461 496.213 199.018 496.622 198.626C496.622 198.626 496.535 198.556 496.563 198.291C496.73 198.098 496.897 197.904 497.118 197.751C497.118 197.751 497.07 197.705 497.107 197.477ZM446.478 111.381C446.478 111.381 446.585 111.325 446.889 111.345C447.23 111.646 447.571 111.947 448.246 112.332C449.101 112.731 449.75 112.797 449.715 111.528C449.686 110.447 449.397 109.226 449.795 108.316C450.311 107.135 451.393 106.202 452.232 105.163C452.944 106.043 453.977 106.823 454.292 107.827C454.74 109.259 454.737 110.855 454.759 112.383C454.765 112.819 454.187 113.264 453.77 113.812C453.77 113.812 453.748 113.961 453.826 114.345C454.311 114.907 454.795 115.469 455.542 115.768C457.059 115.862 458.84 115.497 460.019 116.175C461.273 116.896 462.578 118.534 462.739 119.902C462.968 121.86 462.177 123.937 461.824 125.963C461.662 126.894 461.504 127.827 461.335 128.816C463.413 128.77 465.433 128.077 466.244 130.582C466.244 130.582 466.239 130.696 466.575 130.574C468.667 130.829 469.219 132.398 469.094 134.06C468.977 135.618 467.724 136.58 466.158 136.383C464.923 136.229 463.764 135.526 462.552 135.127C461.904 134.913 461.215 134.827 460.611 134.908C460.666 134.964 460.721 135.02 461.069 135.232C461.42 135.727 461.809 136.199 462.115 136.72C463.122 138.436 462.965 142.681 461.678 144.16C460.332 144.3 458.836 144.884 457.67 144.491C454.752 143.507 453.043 141.145 451.736 138.166C451.524 138.217 451.312 138.268 451.125 138.679C450.527 141.637 449.184 144.016 446.068 144.911C443.485 145.654 442.33 144.906 441.855 142.243C441.257 138.889 442.058 135.893 444.232 132.934C444.185 132.721 444.138 132.507 443.862 132.369C443.704 132.393 443.546 132.418 443.117 132.65C442.466 132.576 441.815 132.503 440.821 132.401C439.965 132.068 439.029 131.86 438.269 131.377C436.492 130.249 434.707 128.955 434.837 126.557C434.933 124.796 437.585 122.776 439.969 122.436C440.71 122.33 441.492 122.507 442.575 122.491C442.834 122.347 443.094 122.203 443.104 121.863C442.509 121.157 441.914 120.45 441.017 119.932C440.307 120.397 439.575 121.29 438.893 121.253C436.189 121.107 434.252 119.651 433.015 117.205C435.72 115.915 437.818 116.421 439.945 118.707C440.335 119.125 440.866 119.411 441.543 119.401C441.485 118.743 441.427 118.085 441.3 117.242C441.3 117.242 441.265 117.048 440.997 116.974C440.973 116.352 440.949 115.729 440.86 114.712C440.879 113.914 440.898 113.117 440.821 112.043C441.145 111.192 441.469 110.342 441.848 109.181C442.605 109.361 443.361 109.54 444.207 109.753C444.207 109.753 444.292 109.708 444.682 109.609C445.251 110.094 445.819 110.578 446.401 111.245C446.401 111.245 446.363 111.422 446.478 111.381ZM326.964 221.971C326.964 221.971 326.86 221.992 327.185 222.077C327.389 222.667 327.594 223.257 327.867 223.765C327.867 223.765 327.784 223.833 328.096 223.914C328.347 224.788 328.598 225.662 328.883 226.873C330.692 230.744 332.501 234.615 334.577 239.057C327.99 236.247 324.389 231.47 321.474 225.579C320.221 222.364 318.967 219.148 317.53 215.646C317.358 214.931 317.013 214.206 317.055 213.505C317.116 212.488 317.458 211.488 317.453 210.314C317.45 209.737 317.448 209.161 317.252 208.323C316.615 207.817 315.977 207.31 315.275 206.521C315.197 206.345 315.118 206.17 314.715 205.858C314.521 204.345 314.327 202.833 314.148 200.994C314.128 200.56 314.109 200.125 313.905 199.398C314.164 198.212 314.423 197.025 314.807 195.515C316.336 191.263 320.045 187.9 319.626 182.854C319.846 182.859 320.066 182.864 320.285 182.869C320.671 184.387 321.056 185.905 321.654 187.717C321.852 189.2 322.051 190.682 322.351 192.57C322.317 193.682 322.282 194.793 322.295 196.134C322.261 196.204 322.227 196.275 322.235 196.685C322.175 196.904 322.116 197.123 322.133 197.521C322.097 197.657 322.014 197.752 321.888 198.027C321.888 198.027 321.795 198.229 321.817 198.517C321.709 198.67 321.601 198.823 321.537 199.277C321.446 199.776 321.355 200.275 321.349 201.208C321.104 203.087 321.649 204.178 323.823 203.842C324.316 203.766 324.858 204.063 325.384 204.142C328.425 204.596 331.421 206.27 334.424 204.242C335.715 206.93 334.001 210.881 331.362 211.876C331.362 211.876 331.304 211.9 331.384 212.209C331.116 212.32 330.848 212.431 330.393 212.597C330.393 212.597 330.244 212.723 330.233 213.061C329.082 215.081 327.077 215.065 325.307 214.663C323.453 214.242 323.161 214.989 323.25 216.328C323.25 216.328 323.146 216.434 323.483 216.397C325.507 217.288 326.294 218.959 326.499 220.98C326.499 220.98 326.412 221.035 326.687 221.152C326.744 221.427 326.801 221.703 326.964 221.971ZM400.781 91.4922C400.781 91.4922 400.747 91.5161 400.463 91.4034C399.62 90.6178 398.777 89.8322 397.933 89.0467C398.112 88.8265 398.29 88.6063 398.469 88.3861C399.609 89.2301 400.749 90.0741 402.119 90.998C402.172 91.0597 402.225 91.1215 402.456 91.2236C402.499 91.2681 402.577 91.313 402.577 91.3568C402.575 91.4627 402.537 91.568 402.791 91.6694C403.735 92.4867 404.68 93.3039 405.652 94.0453C405.652 94.0453 405.649 94.1437 405.937 94.3353C420.478 107.988 425.597 129.329 423.351 141.71C422.215 136.091 421.213 129.287 419.426 122.696C416.207 110.826 409.649 100.788 400.994 91.8762C400.868 91.7963 400.796 91.6822 400.781 91.4922ZM357.36 275.65C354.32 270.936 353.342 265.615 353.254 260.176C353.181 255.632 353.669 251.08 353.908 246.531C354.156 246.541 354.404 246.551 354.651 246.561C355.655 256.291 356.66 266.022 357.639 275.796C357.639 275.796 357.669 275.731 357.36 275.65ZM507.754 196.679C507.824 196.566 507.894 196.452 507.963 196.338C508.002 196.386 508.082 196.459 508.071 196.479C507.998 196.604 507.905 196.717 507.761 197.172C506.345 199.74 506.035 202.509 505.929 205.406C505.806 208.795 505.436 212.196 504.874 215.542C504.417 218.256 503.517 220.896 502.746 223.827C502.088 223.302 501.931 223.233 501.869 223.114C501.764 222.912 501.665 222.68 501.657 222.457C501.358 214.263 502.006 206.226 505.869 198.785C506.272 198.009 507.183 197.495 507.754 196.679ZM108.04 260.702C108.069 260.987 108.097 261.272 108.346 261.741C108.375 261.925 108.405 262.108 108.555 262.558C108.589 262.845 108.624 263.133 108.879 263.694C109.244 264.891 109.608 266.087 109.973 267.284C109.644 267.402 109.315 267.52 108.986 267.638C108.507 266.478 108.029 265.319 107.452 264.049C107.452 264.049 107.465 263.903 107.266 263.736C107.236 263.571 107.205 263.405 107.07 263.04C107.07 263.04 107.063 262.815 106.88 262.706C106.766 262.598 106.728 262.468 106.612 262.064C106.572 261.776 106.532 261.488 106.266 261.016C106.228 260.83 106.189 260.643 105.99 260.261C105.233 257.581 104.354 254.928 103.742 252.215C101.322 241.504 100.941 230.795 104.1 220.14C104.311 219.427 104.657 218.754 104.94 218.063C105.147 218.114 105.353 218.165 105.56 218.216C105.56 218.843 105.66 219.489 105.545 220.094C104.04 227.989 104.023 235.933 105.031 243.86C105.69 249.043 106.749 254.175 107.828 259.556C107.865 259.847 107.902 260.138 108.04 260.702ZM43.1042 137.889C43.058 137.724 43.0118 137.56 42.8015 137.149C42.6819 136.779 42.5623 136.409 42.208 135.793C41.9299 134.866 41.6518 133.939 41.3738 133.012C41.5937 132.932 41.8136 132.853 42.0334 132.773C42.462 133.689 42.8906 134.604 43.5025 135.789C50.4101 148.917 58.6551 161.031 69.2151 171.602C76.0219 178.416 80.7161 186.647 82.2771 196.366C82.3727 196.961 82.2269 197.596 82.1935 198.212C81.0778 195.978 80.4948 193.762 79.6217 191.666C75.7088 182.275 69.0905 174.865 62.0245 167.763C54.1756 159.874 48.6964 150.418 44.0563 140.151C43.9469 139.844 43.8375 139.538 43.5187 138.987C43.4481 138.677 43.3775 138.366 43.1042 137.889ZM138.256 4.627C157.33 4.30593 176.297 5.56488 195.109 8.74236C215.308 12.1541 235.366 16.4589 256.199 17.992C256.901 18.1101 257.603 18.2282 258.693 18.339C259.599 18.4077 260.505 18.4764 261.835 18.4663C263.903 18.6193 265.971 18.7723 268.039 18.9254C268.025 19.0729 268.012 19.2204 267.998 19.3679C265.795 19.3679 263.591 19.3679 260.966 19.3898C258.046 19.2844 255.126 19.179 251.951 19.2222C251.392 19.1413 250.833 19.0604 249.844 18.9857C239.089 17.8053 228.225 17.2286 217.6 15.3248C191.617 10.6691 165.577 6.70279 138.749 5.5372C136.018 5.40966 133.287 5.28213 130.556 5.15459C130.562 4.98984 130.569 4.82508 130.575 4.66033C132.993 4.66033 135.411 4.66033 138.256 4.627ZM189.741 56.8938C189.496 60.4875 189.252 64.0813 188.967 68.2632C186.501 67.4727 184.534 67.0699 182.772 66.2366C176.358 63.2044 172.543 57.8865 170.355 51.3418C167.673 43.3155 167.878 35.2853 170.606 27.1262C174.535 27.7428 177.593 29.6297 180.199 32.2216C186.905 38.892 189.206 47.3363 189.741 56.8938ZM207.844 194.433C207.284 187.817 208.357 181.571 211.862 175.81C223.483 182.657 230.378 211.799 222.578 220.456C214.808 215.961 208.941 205.731 207.844 194.433ZM247.398 66.4988C256.019 53.9065 270.791 51.7609 277.807 55.1071C273.396 70.6688 254.443 80.2532 243.367 76.542C243.491 73.8826 244.556 71.171 247.398 66.4988ZM292.517 147.859C292.764 148.484 293.012 149.109 293.257 149.728C278.8 156.083 260.503 146.334 258.214 133.581C268.281 129.086 285.323 134.498 292.517 147.859ZM454.335 147.898C453.965 149.75 453.594 151.601 453.109 154.031C450.473 150.461 450.369 145.903 452.765 142.171C453.374 144.265 453.843 145.88 454.335 147.898ZM434.975 139.578C435.964 135.946 437.816 134.472 440.894 134.866C440.879 138.556 438.488 140.631 434.975 139.578ZM171.192 131.228C171.218 130.996 171.243 130.764 171.269 130.532C171.477 130.585 171.685 130.639 171.893 130.692C171.752 130.89 171.611 131.088 171.192 131.228Z" fill="#EEEEEE"/>
</svg>
