<svg width="124" height="346" viewBox="0 0 124 346" fill="none" xmlns="http://www.w3.org/2000/svg">
<path d="M78.2821 195.773C78.1919 195.796 78.1019 195.819 78.0117 195.841C76.3307 196.264 74.6295 196.621 72.9112 196.912C72.7857 196.932 72.6596 196.952 72.5335 196.973C71.7989 197.093 71.0613 197.2 70.3206 197.295C70.1793 197.313 70.0374 197.333 69.8955 197.351C69.0598 197.453 68.2212 197.541 67.3782 197.612C67.2509 197.623 67.1223 197.63 66.9944 197.64C66.2867 197.696 65.5759 197.739 64.8632 197.772C64.6427 197.783 64.4223 197.792 64.2018 197.801C63.3685 197.832 62.5335 197.853 61.6948 197.853C60.8561 197.853 60.021 197.832 59.1878 197.801C58.9673 197.792 58.7462 197.783 58.5264 197.772C57.8137 197.739 57.1029 197.696 56.3951 197.64C56.2672 197.63 56.1386 197.623 56.0107 197.612C55.1684 197.541 54.3296 197.453 53.4939 197.351C53.352 197.334 53.2101 197.313 53.0682 197.295C52.3275 197.2 51.59 197.093 50.8561 196.973C50.73 196.952 50.6038 196.933 50.4778 196.912C48.7601 196.621 47.0595 196.264 45.379 195.841C45.2883 195.819 45.1969 195.796 45.1061 195.773C43.4007 195.337 41.7165 194.835 40.0562 194.266C37.23 193.298 34.4721 192.145 31.8031 190.801C33.1492 194.507 35.6872 197.844 39.0878 200.567C39.8668 207.937 46.9055 213.986 56.2185 215.718C56.2544 217.704 57.3447 219.427 58.9539 220.36V227.403C57.2521 228.333 56.0985 230.139 56.0985 232.215C56.0985 234.29 57.2527 236.096 58.9539 237.026V244C57.2521 244.93 56.0985 246.736 56.0985 248.812C56.0985 249.035 56.1156 249.255 56.1417 249.472H43.8661C42.3525 249.472 41.1252 250.699 41.1252 252.213C41.1252 253.079 41.535 253.842 42.1624 254.345C41.535 254.847 41.1252 255.61 41.1252 256.476C41.1252 257.343 41.535 258.106 42.1624 258.608C41.535 259.11 41.1252 259.873 41.1252 260.74C41.1252 262.254 42.3525 263.481 43.8661 263.481H45.5539V306.714C45.5539 308.227 46.7812 309.455 48.2948 309.455C49.8084 309.455 51.0357 308.227 51.0357 306.714V263.481H52.2539V324.986C52.2539 326.5 53.4812 327.727 54.9948 327.727C56.5084 327.727 57.7357 326.5 57.7357 324.986V263.481H58.9539V343.259C58.9539 344.773 60.1812 346 61.6948 346C63.2084 346 64.4357 344.773 64.4357 343.259V263.481H65.6539V324.986C65.6539 326.5 66.8812 327.727 68.3948 327.727C69.9084 327.727 71.1357 326.5 71.1357 324.986V263.481H72.3539V306.714C72.3539 308.227 73.5812 309.455 75.0948 309.455C76.6084 309.455 77.8357 308.227 77.8357 306.714V263.481H79.4979C81.0115 263.481 82.2388 262.254 82.2388 260.74C82.2388 259.873 81.8282 259.11 81.2009 258.608C81.8282 258.106 82.2388 257.343 82.2388 256.476C82.2388 255.61 81.8282 254.847 81.2009 254.345C81.8282 253.842 82.2388 253.079 82.2388 252.213C82.2388 250.699 81.0115 249.472 79.4979 249.472H67.0188C67.045 249.255 67.0621 249.035 67.0621 248.812C67.0621 246.832 66.009 245.102 64.4357 244.139V236.887C66.0084 235.923 67.0621 234.194 67.0621 232.214C67.0621 230.234 66.009 228.505 64.4357 227.541V220.359C66.0455 219.427 67.1358 217.702 67.1711 215.717C76.4841 213.985 83.5221 207.936 84.3018 200.566C87.7023 197.842 90.2398 194.506 91.5859 190.8C88.9174 192.143 86.1602 193.297 83.3346 194.265C81.6742 194.835 79.9882 195.338 78.2821 195.773Z" fill="#F4B869"/>
<path d="M92.2517 72.1133C90.1192 62.4964 80.1173 54.8754 67.3746 53.1042C67.1803 51.2276 66.0376 49.636 64.4357 48.8077V38.0517C66.073 37.1034 67.1766 35.337 67.1766 33.3093C67.1766 31.2817 66.0724 29.5153 64.4357 28.567V2.74091C64.4357 1.22732 63.2084 0 61.6948 0C60.1812 0 58.9539 1.22732 58.9539 2.74091V28.567C57.3167 29.5153 56.213 31.2817 56.213 33.3093C56.213 35.337 57.3173 37.1034 58.9539 38.0517V49.072C57.6097 49.9405 56.6704 51.3786 56.4792 53.0463C43.5165 54.6957 33.2954 62.38 31.1374 72.1133C40.4693 67.2808 50.8841 64.7171 61.6948 64.7171C72.505 64.7171 82.9198 67.2808 92.2517 72.1133Z" fill="#F4B869"/>
<path d="M64.4357 192.916C72.1078 192.58 79.4157 190.844 86.1102 187.956C100.014 163.133 103.589 135.934 96.7065 106.902C93.3937 92.9264 88.2091 81.3994 84.1958 73.8229C78.0306 71.4067 71.3818 69.957 64.4357 69.6531V192.916Z" fill="#F4B869"/>
<path d="M36.0721 187.421C43.0918 190.63 50.8182 192.56 58.9533 192.915V69.6537C51.5711 69.9765 44.5258 71.5955 38.0396 74.2907C34.0622 81.8702 29.0213 93.2127 25.7761 106.903C18.9433 135.725 22.4156 162.743 36.0721 187.421Z" fill="#F4B869"/>
<path d="M20.4905 105.436C23.0225 94.8251 26.5345 85.6528 29.8619 78.4277C11.9663 89.2287 0 108.858 0 131.285C0 152.729 10.9429 171.615 27.548 182.672C22.836 172.526 19.6651 161.967 18.1027 151.089C15.9819 136.322 16.7848 120.962 20.4905 105.436Z" fill="#F4B869"/>
<path d="M92.2796 77.6943C95.707 85.029 99.3731 94.4608 101.993 105.436C105.698 120.961 106.501 136.321 104.381 151.088C102.775 162.267 99.473 173.11 94.543 183.513C111.873 172.589 123.39 153.284 123.39 131.284C123.39 108.341 110.864 88.3236 92.2796 77.6943Z" fill="#F4B869"/>
</svg>
