<svg width="265" height="128" viewBox="0 0 265 128" fill="none" xmlns="http://www.w3.org/2000/svg">
<path d="M44.4253 13.8588C53.3511 12.0906 62.5072 12.5622 71.1466 15.1974C71.2748 15.2865 71.418 15.3586 71.5782 15.3996C81.2359 17.8576 87.091 27.7145 84.633 37.3702C83.6979 41.0437 81.388 44.1334 78.1291 46.0698C74.8701 48.0061 71.0516 48.5568 67.3791 47.6226C64.5086 46.8918 62.0947 45.0866 60.5818 42.5405C59.068 39.9944 58.6386 37.0118 59.3684 34.1413C60.5389 29.5428 65.2315 26.7574 69.8311 27.9248C73.3683 28.8259 75.5139 32.4363 74.6128 35.9735C73.927 38.6618 71.1817 40.2938 68.4974 39.6069C67.5242 39.3586 66.7052 38.7479 66.1926 37.8839C65.679 37.0208 65.5338 36.0096 65.7811 35.0364C66.1536 33.5706 67.6515 32.6856 69.1152 33.055C70.1455 33.3173 70.7702 34.3696 70.5089 35.3998C70.3277 36.1097 70.7572 36.8306 71.4661 37.0118C72.1759 37.194 72.8978 36.7635 73.078 36.0536C73.7008 33.6067 72.2169 31.1087 69.769 30.4849C66.8875 29.751 63.9449 31.4991 63.211 34.3816C62.7885 36.0416 63.0378 37.7657 63.9119 39.2375C64.787 40.7103 66.1827 41.7535 67.8427 42.176C71.9497 43.2213 76.1367 40.7313 77.182 36.6273C77.7927 34.2274 77.4323 31.7334 76.1667 29.6038C74.9022 27.4753 72.8837 25.9654 70.4838 25.3547C64.4715 23.8238 58.3292 27.4713 56.7973 33.4865C55.8922 37.0428 56.4259 40.7393 58.3001 43.8951C60.1754 47.0499 63.166 49.2867 66.7233 50.1917C68.11 50.5452 69.5137 50.7194 70.9084 50.7194C73.898 50.7194 76.8446 49.9164 79.4818 48.3495C83.3495 46.0517 86.0917 42.3843 87.2011 38.024C89.5439 28.8219 85.2998 19.4676 77.4453 14.9491C82.8147 7.5191 90.6663 2.46798 99.7062 0.678819C114.915 -2.33283 130.538 4.87991 138.16 18.2791C137.03 19.036 136.069 20.0312 135.354 21.2347C134.089 23.3633 133.728 25.8583 134.339 28.2582C135.223 31.7294 138.357 34.0452 141.785 34.0452C142.411 34.0462 143.046 33.9681 143.679 33.8069C145.339 33.3844 146.735 32.3411 147.61 30.8694C148.484 29.3966 148.734 27.6725 148.311 26.0135C147.957 24.6178 147.078 23.4434 145.839 22.7065C144.602 21.9706 143.15 21.7603 141.753 22.1168C140.567 22.4181 139.569 23.164 138.945 24.2153C138.32 25.2676 138.142 26.4991 138.444 27.6845C138.625 28.3944 139.35 28.8209 140.056 28.6417C140.765 28.4604 141.194 27.7396 141.013 27.0297C140.751 25.9995 141.376 24.9472 142.407 24.6849C143.119 24.5037 143.854 24.6108 144.484 24.9852C145.114 25.3587 145.56 25.9564 145.741 26.6663C145.988 27.6395 145.843 28.6507 145.329 29.5137C144.817 30.3768 143.999 30.9885 143.025 31.2368C140.337 31.9216 137.593 30.2917 136.909 27.6034C136.473 25.8903 136.73 24.1092 137.634 22.5893C138.305 21.461 139.273 20.5779 140.427 20.0192C142.093 19.3724 143.801 18.8738 145.502 18.5374C161.787 15.3105 177.663 25.9414 180.887 42.2281C181.26 44.1064 181.451 46.0447 181.46 47.9911C181.461 48.1433 181.496 48.2864 181.544 48.4226C181.457 58.3276 176.725 66.5225 176.663 66.6276C176.292 67.2584 176.502 68.0704 177.134 68.4428C177.344 68.567 177.575 68.6261 177.805 68.6261C178.259 68.6261 178.702 68.3928 178.949 67.9723C179.212 67.5257 183.86 59.478 184.199 49.3838C197.521 49.9945 213.08 45.6032 222.897 40.8094C237.047 33.901 256.742 39.8112 263.422 52.9741C266.241 58.5288 264.942 64.0655 262.201 66.6627C261.492 67.3345 260.691 67.8621 259.864 68.2756C260.903 66.8489 261.599 65.1569 261.791 63.3627C262.351 58.1494 258.762 53.8071 252.19 51.7466C237.696 47.2001 217.109 58.2215 194.224 82.7782C182.11 95.7739 165.775 95.1592 154.204 92.3558C154.1 92.3317 153.996 92.3187 153.891 92.3187C153.629 92.3187 153.371 92.3958 153.151 92.545C152.842 92.7533 152.634 93.0807 152.58 93.4491C151.717 99.2431 149.619 104.662 146.344 109.553C140.482 118.309 131.559 124.258 121.222 126.305C110.886 128.351 100.37 126.25 91.6134 120.387C89.7572 119.143 88.009 117.733 86.39 116.199C76.7514 106.116 76.8816 90.077 86.7936 80.164C94.7312 72.2264 107.647 72.2264 115.586 80.164C121.833 86.4106 121.833 96.5759 115.586 102.822C110.692 107.717 102.729 107.716 97.8339 102.822C94.0223 99.0108 94.0223 92.8073 97.8339 88.9957C100.781 86.0501 105.574 86.0501 108.521 88.9957C110.775 91.2494 110.775 94.9169 108.521 97.1706C106.822 98.8707 104.056 98.8697 102.357 97.1706C101.101 95.9141 101.101 93.8696 102.357 92.6131C102.875 92.0955 102.875 91.2564 102.357 90.7388C101.839 90.2202 101 90.2202 100.482 90.7388C98.1924 93.0286 98.1924 96.7551 100.482 99.0449C101.806 100.368 103.567 101.098 105.439 101.098C107.312 101.098 109.073 100.368 110.396 99.0449C113.683 95.7569 113.683 90.4084 110.396 87.1204C106.416 83.1396 99.9405 83.1396 95.9597 87.1204C91.1139 91.9663 91.1139 99.8509 95.9597 104.697C101.889 110.624 111.535 110.624 117.462 104.697C120.989 101.169 122.931 96.4798 122.931 91.4927C122.931 86.5047 120.99 81.815 117.462 78.2887C113.115 73.9425 107.338 71.5486 101.191 71.5486C95.0446 71.5486 89.2666 73.9425 84.9204 78.2887C74.709 88.5001 73.912 104.606 82.5124 115.747C77.3412 118.709 71.7394 120.812 65.8293 121.982C51.3898 124.842 36.7 121.906 24.4672 113.716C12.2354 105.527 3.92441 93.0626 1.06595 78.6232C-1.79251 64.1837 1.14288 49.4939 9.33279 37.2621C17.5227 25.0273 29.9848 16.7172 44.4253 13.8588Z" fill="#F4B869"/>
</svg>
