<svg width="265" height="127" viewBox="0 0 265 127" fill="none" xmlns="http://www.w3.org/2000/svg">
<path d="M220.308 13.842C211.393 12.076 202.248 12.547 193.619 15.179C193.491 15.268 193.348 15.34 193.188 15.381C183.542 17.836 177.694 27.681 180.149 37.325C181.083 40.994 183.39 44.08 186.645 46.014C189.9 47.948 193.714 48.498 197.382 47.565C200.249 46.835 202.66 45.032 204.171 42.489C205.683 39.946 206.112 36.967 205.383 34.1C204.214 29.507 199.527 26.725 194.933 27.891C191.4 28.791 189.257 32.397 190.157 35.93C190.842 38.615 193.584 40.245 196.265 39.559C197.237 39.311 198.055 38.701 198.567 37.838C199.08 36.976 199.225 35.966 198.978 34.994C198.606 33.53 197.11 32.646 195.648 33.015C194.619 33.277 193.995 34.328 194.256 35.357C194.437 36.066 194.008 36.786 193.3 36.967C192.591 37.149 191.87 36.719 191.69 36.01C191.068 33.566 192.55 31.071 194.995 30.448C197.873 29.715 200.812 31.461 201.545 34.34C201.967 35.998 201.718 37.72 200.845 39.19C199.971 40.661 198.577 41.703 196.919 42.125C192.817 43.169 188.635 40.682 187.591 36.583C186.981 34.186 187.341 31.695 188.605 29.568C189.868 27.442 191.884 25.934 194.281 25.324C200.286 23.795 206.421 27.438 207.951 33.446C208.855 36.998 208.322 40.69 206.45 43.842C204.577 46.993 201.59 49.227 198.037 50.131C196.652 50.484 195.25 50.658 193.857 50.658C190.871 50.658 187.928 49.856 185.294 48.291C181.431 45.996 178.692 42.333 177.584 37.978C175.244 28.787 179.483 19.444 187.328 14.931C181.965 7.51 174.123 2.465 165.094 0.677998C149.904 -2.33 134.299 4.874 126.687 18.257C127.815 19.013 128.775 20.007 129.489 21.209C130.753 23.335 131.113 25.827 130.503 28.224C129.62 31.691 126.49 34.004 123.066 34.004C122.441 34.005 121.807 33.927 121.174 33.766C119.516 33.344 118.122 32.302 117.248 30.832C116.375 29.361 116.126 27.639 116.548 25.982C116.902 24.588 117.78 23.415 119.017 22.679C120.253 21.944 121.703 21.734 123.098 22.09C124.283 22.391 125.279 23.136 125.903 24.186C126.527 25.237 126.705 26.467 126.403 27.651C126.222 28.36 125.498 28.786 124.793 28.607C124.085 28.426 123.656 27.706 123.837 26.997C124.099 25.968 123.475 24.917 122.445 24.655C121.734 24.474 121 24.581 120.37 24.955C119.741 25.328 119.296 25.925 119.115 26.634C118.868 27.606 119.013 28.616 119.526 29.478C120.038 30.34 120.855 30.951 121.828 31.199C124.512 31.883 127.253 30.255 127.936 27.57C128.372 25.859 128.115 24.08 127.212 22.562C126.542 21.435 125.575 20.553 124.422 19.995C122.758 19.349 121.053 18.851 119.354 18.515C103.088 15.292 87.2318 25.91 84.0108 42.177C83.6388 44.053 83.4477 45.989 83.4387 47.933C83.4377 48.085 83.4027 48.228 83.3548 48.364C83.4417 58.257 88.1678 66.442 88.2298 66.547C88.6008 67.177 88.3908 67.988 87.7598 68.36C87.5498 68.484 87.3187 68.543 87.0897 68.543C86.6357 68.543 86.1938 68.31 85.9468 67.89C85.6838 67.444 81.0418 59.406 80.7028 49.324C67.3978 49.934 51.8568 45.548 42.0518 40.76C27.9188 33.86 8.2477 39.763 1.5757 52.91C-1.2393 58.458 0.0577939 63.988 2.79579 66.582C3.50379 67.253 4.30378 67.78 5.12978 68.193C4.09178 66.768 3.39673 65.078 3.20473 63.286C2.64573 58.079 6.23082 53.742 12.7948 51.684C27.2708 47.143 47.8328 58.151 70.6908 82.678C82.7898 95.658 99.1048 95.044 110.662 92.244C110.766 92.22 110.87 92.207 110.975 92.207C111.236 92.207 111.494 92.284 111.714 92.433C112.023 92.641 112.23 92.968 112.284 93.336C113.146 99.123 115.242 104.535 118.513 109.42C124.368 118.166 133.28 124.108 143.604 126.152C153.928 128.196 164.431 126.097 173.177 120.241C175.031 118.999 176.777 117.591 178.394 116.058C188.021 105.988 187.891 89.968 177.991 80.067C170.063 72.139 157.163 72.139 149.233 80.067C142.994 86.306 142.994 96.459 149.233 102.698C154.121 107.587 162.075 107.586 166.964 102.698C170.771 98.891 170.771 92.695 166.964 88.888C164.021 85.946 159.233 85.946 156.29 88.888C154.039 91.139 154.039 94.802 156.29 97.053C157.987 98.751 160.749 98.75 162.446 97.053C163.701 95.798 163.701 93.756 162.446 92.501C161.929 91.984 161.929 91.146 162.446 90.629C162.964 90.111 163.802 90.111 164.319 90.629C166.606 92.916 166.606 96.638 164.319 98.925C162.997 100.247 161.238 100.976 159.368 100.976C157.497 100.976 155.739 100.247 154.417 98.925C151.134 95.641 151.134 90.299 154.417 87.015C158.392 83.039 164.86 83.039 168.836 87.015C173.676 91.855 173.676 99.73 168.836 104.57C162.914 110.49 153.28 110.49 147.36 104.57C143.837 101.047 141.897 96.363 141.897 91.382C141.897 86.4 143.836 81.716 147.36 78.194C151.701 73.853 157.471 71.462 163.611 71.462C169.75 71.462 175.521 73.853 179.862 78.194C190.061 88.393 190.857 104.479 182.267 115.607C187.432 118.565 193.027 120.666 198.93 121.834C213.352 124.691 228.024 121.758 240.242 113.578C252.459 105.399 260.76 92.95 263.615 78.528C266.47 64.106 263.538 49.434 255.358 37.217C247.178 24.997 234.731 16.697 220.308 13.842Z" fill="#F4B869"/>
</svg>
