<svg width="271" height="107" viewBox="0 0 271 107" fill="none" xmlns="http://www.w3.org/2000/svg">
<path d="M8.29653 56.7607C8.74739 56.3195 8.82325 55.6219 8.47836 55.094C6.80487 52.536 5.9203 49.5738 5.9203 46.5287C5.9203 37.8757 12.971 30.8355 21.6384 30.8355C22.1832 30.8355 22.744 30.8675 23.3538 30.9333C23.7497 30.9743 24.1387 30.8405 24.4216 30.5641C24.7045 30.2896 24.8494 29.9014 24.8154 29.5071C24.7434 28.6618 24.7085 27.8953 24.7085 27.1647C24.7085 12.1861 36.9146 0 51.9181 0C61.4361 0 70.3895 5.07504 75.283 13.245C75.4669 13.5524 75.7668 13.771 76.1157 13.8528C76.4646 13.9367 76.8314 13.8718 77.1334 13.6802C87.976 6.75279 101.899 2.93827 116.338 2.93827C144.061 2.93827 168.074 16.9029 174.135 36.3268C167.152 38.0624 161.579 44.0516 160.992 51.3643C160.39 58.8576 166.007 65.4416 173.512 66.0425C173.814 66.0664 174.116 66.0784 174.413 66.0784C180.182 66.0784 185.09 61.6381 185.558 55.8006C185.964 50.7445 182.173 46.2992 177.109 45.894C172.908 45.5606 169.221 48.6955 168.884 52.8853C168.604 56.3834 171.226 59.4574 174.729 59.7378C176.162 59.8526 177.546 59.4045 178.636 58.4763C179.728 57.5481 180.391 56.2517 180.506 54.8265C180.565 54.0989 180.021 53.4621 179.292 53.4033C178.558 53.3444 177.926 53.8873 177.867 54.6149C177.808 55.3375 177.472 55.9942 176.92 56.4643C176.367 56.9343 175.664 57.1609 174.941 57.103C172.893 56.9394 171.36 55.1419 171.524 53.0959C171.745 50.3572 174.158 48.3112 176.897 48.5278C180.507 48.8182 183.208 51.984 182.919 55.589C182.542 60.2748 178.419 63.7809 173.722 63.4076C167.672 62.9236 163.145 57.615 163.629 51.5758C164.19 44.6005 170.46 38.8967 177.518 38.4905C177.776 38.4825 178.034 38.4715 178.288 38.4715C192.136 38.4715 203.401 49.7185 203.401 63.5424C203.401 65.8828 203.056 68.1953 202.414 70.4389C192.432 70.7672 179.711 72.0717 166.395 75.7415C164.081 76.3802 161.886 76.8453 159.807 77.1646C155.924 77.3163 152.944 76.2654 150.943 74.0468C146.777 69.4268 147.932 61.212 147.945 61.1291C148.051 60.4065 147.551 59.7359 146.828 59.6291C146.109 59.5223 145.432 60.0223 145.325 60.7439C145.267 61.1311 143.986 70.2822 148.976 75.8163C149.614 76.5229 150.328 77.1307 151.105 77.6517C142.45 77.1886 136.744 73.6955 133.931 69.6235C131.156 65.6053 131.023 60.9445 133.582 57.4593C134.015 56.8705 133.887 56.0441 133.297 55.6119C132.706 55.1828 131.88 55.3075 131.447 55.8964C128.25 60.2488 128.369 66.2261 131.752 71.1235C135.185 76.0928 142.303 80.3404 153.109 80.3404C155.303 80.3404 157.654 80.1598 160.152 79.7796C160.185 79.7736 160.221 79.7715 160.255 79.7635C162.423 79.4292 164.702 78.9492 167.1 78.2885C192.756 71.2153 216.167 73.0647 221.333 73.5997C241.025 76.3303 257.661 86.0782 271 102.728C263.706 98.425 250.701 92.6752 233.3 92.6752C226.301 92.6752 218.595 93.6044 210.257 95.9318C155.406 111.24 124.265 110.675 115.056 94.1993C114.877 93.8799 114.574 93.6493 114.218 93.5605C113.861 93.4737 113.486 93.5366 113.179 93.7352C104.94 99.0777 95.0459 101.902 84.5691 101.902C76.5145 101.902 68.715 100.201 61.7851 96.9649C59.8737 95.8331 58.0573 94.5157 56.3718 93.0246C49.4829 86.9345 45.4721 78.7945 45.0773 70.1065C44.7623 63.1841 47.1666 56.5521 51.8472 51.4351C56.5287 46.3182 62.9247 43.326 69.8596 43.0126C81.1801 42.5046 90.7822 51.2674 91.295 62.5553C91.49 66.8588 89.9955 70.9808 87.0854 74.1625C84.1753 77.3443 80.1984 79.2037 75.8887 79.3983C72.5028 79.548 69.2748 78.3823 66.7775 76.1057C64.2803 73.8292 62.8208 70.7183 62.6678 67.3449C62.5488 64.7181 63.4616 62.202 65.2371 60.2588C67.0135 58.3166 69.4418 57.1819 72.074 57.0611C76.2777 56.8964 79.8456 60.1281 80.0375 64.3218C80.0705 65.0504 80.7003 65.6083 81.4201 65.5814C82.1499 65.5485 82.7157 64.9307 82.6827 64.2011C82.4258 58.5522 77.5973 54.1388 71.955 54.4213C68.616 54.572 65.5369 56.0121 63.2836 58.4763C61.0303 60.9395 59.8726 64.1322 60.0236 67.4647C60.2095 71.5427 61.9741 75.3043 64.9932 78.0569C68.0132 80.8105 71.921 82.2278 76.0108 82.0381C81.0272 81.8116 85.6558 79.6468 89.0428 75.9441C92.4298 72.2413 94.1691 67.4437 93.9412 62.4346C93.3624 49.6915 82.5048 39.787 69.7417 40.3728C62.1 40.7192 55.0522 44.0157 49.8938 49.6537C44.7364 55.2916 42.0861 62.5982 42.434 70.2273C42.9079 80.6478 48.1752 89.9765 56.0208 96.2592C49.8247 101.419 41.7362 104.253 33.0929 104.253C14.8455 104.253 -5.1611e-06 91.4327 -5.1611e-06 75.6736C-0.00100485 68.7043 2.94616 61.9874 8.29653 56.7607Z" fill="#F4B869"/>
</svg>
