<svg width="273" height="165" viewBox="0 0 273 165" fill="none" xmlns="http://www.w3.org/2000/svg">
<path d="M116.666 73.1344C116.626 73.3189 116.585 73.5034 116.52 73.7803C116.493 73.9308 116.492 73.989 116.491 74.0471C115.792 77.7211 115.847 81.3475 117.164 84.8973C118.765 89.2106 119.286 93.666 118.55 98.1946C117.944 101.924 116.339 105.335 114.681 108.706C113.552 111.001 112.527 113.355 110.867 115.337C110.042 116.323 109.007 117.157 108.304 118.217C104.612 123.789 100.995 129.412 97.3517 135.017C97.1337 135.352 96.9155 135.688 96.5884 136.191C96.4349 134.978 96.3491 133.94 96.1659 132.919C95.5357 129.407 94.7951 125.914 94.2484 122.39C93.9157 120.245 93.8436 118.058 93.687 115.888C93.4218 112.214 92.7272 108.614 91.8613 105.042C91.8405 104.957 91.7881 104.879 91.6486 104.576C91.601 105.035 91.5636 105.267 91.5547 105.5C91.4006 109.545 91.6602 113.554 92.7309 117.474C93.6793 120.946 93.9095 124.5 94.1093 128.069C94.2876 131.254 94.5674 134.434 94.8574 137.611C94.9327 138.435 94.8108 139.114 94.3419 139.813C92.2685 142.904 90.2427 146.026 88.1962 149.135C88.0487 149.359 87.8732 149.565 87.5673 149.968C87.6814 143.94 86.6683 138.244 85.9716 132.505C85.2769 126.782 84.2951 121.132 82.9469 115.377C82.8089 116.134 82.6352 116.78 82.5812 117.437C82.3527 120.215 82.8834 122.912 83.8195 125.488C85.0913 128.988 85.4126 132.569 85.3309 136.247C85.2232 141.094 85.6244 145.91 86.4267 150.694C86.4878 151.059 86.365 151.556 86.1414 151.849C84.7638 153.658 83.8775 155.647 83.4775 157.9C82.7674 161.9 81.2581 163.393 77.2527 164.192C74.8439 164.672 72.4213 165.162 69.9491 164.949C68.9292 164.86 67.8917 164.632 66.9305 164.28C64.9094 163.541 63.6541 160.979 64.3678 158.935C64.6497 158.128 65.3559 157.469 65.8284 156.799C63.837 156.75 62.9641 159.629 63.9783 163.656C62.6821 163.953 61.4006 164.374 60.0889 164.515C58.4905 164.688 56.8389 164.833 55.2599 164.621C52.4392 164.242 50.3076 161.28 50.7081 158.467C50.8027 157.802 51.302 157.159 51.7289 156.592C52.0221 156.202 52.5119 155.96 52.9799 155.601C53.0818 155.512 53.1178 155.474 53.1969 155.427C53.2613 155.365 53.2827 155.313 53.3042 155.261C53.2253 155.294 53.1465 155.326 53.0277 155.356C52.9423 155.379 52.8967 155.406 52.8512 155.432C50.2495 156.607 49.2813 158.145 50.0872 161.556C50.1556 161.846 50.2666 162.125 50.3604 162.417C48.6519 162.673 47.3604 161.848 46.9312 160.205C46.2353 157.541 46.8064 155.044 48.2615 152.8C50.3926 149.513 53.5011 147.739 57.4167 147.515C59.7094 147.385 61.9492 147.086 64.0844 146.207C64.4043 146.076 64.7083 145.905 65.002 145.674C63.1108 146.148 61.2187 146.533 59.1355 146.398C59.9499 145.757 60.7379 145.278 61.3462 144.63C62.5522 143.345 63.8133 142.069 64.7772 140.608C67.3954 136.64 69.8948 132.593 72.3965 128.549C76.315 122.216 79.8447 115.665 82.928 108.889C84.2653 105.949 85.4562 102.924 85.9258 99.6774C86.5604 95.2895 86.139 90.9985 84.8417 86.6736C84.778 86.4656 84.7304 86.358 84.6827 86.2503C84.6776 86.2149 84.6726 86.1794 84.6416 86.0437C84.0591 84.5218 83.5025 83.1003 82.9459 81.6787C82.8859 81.7019 82.8259 81.7251 82.7658 81.7482C83.2598 83.1332 83.7538 84.5182 84.2477 85.9031C84.3456 86.3216 84.4435 86.74 84.555 87.255C84.583 87.3752 84.5974 87.399 84.6118 87.4228C85.5223 91.4501 85.6768 95.4945 84.8595 99.5553C84.7004 100.346 84.4743 101.124 84.2389 102.069C83.8751 101.54 83.6133 101.131 83.3231 100.742C81.9277 98.8768 80.4904 97.0414 79.1394 95.1443C78.4972 94.2425 78.0391 93.2118 77.4497 92.2694C77.1189 91.7405 76.7653 91.1801 76.2907 90.7962C75.2307 89.9388 74.0676 89.21 72.9888 88.3743C72.4764 87.9773 72.0391 87.4746 71.606 86.986C70.5478 85.7922 69.5117 84.5786 68.3521 83.2407C68.6825 82.7932 69.2571 82.0009 69.8463 81.2195C71.936 78.4483 74.0208 75.6789 75.549 72.534C77.3563 68.8146 78.4265 64.8569 79.3631 60.8615C80.4571 56.1948 82.1111 51.7611 84.4563 47.5751C86.3676 44.1635 88.0514 40.6474 88.7244 36.7447C89.3711 32.995 89.2638 29.3244 87.4575 25.8584C87.3053 25.5663 87.0882 25.308 86.7957 25.1094C87.0578 26.0857 87.3845 27.0498 87.5705 28.0403C88.2759 31.7961 87.8178 35.494 86.5636 39.04C84.8086 44.0019 82.8116 48.8777 80.9699 53.8097C79.3494 58.1492 77.7954 62.5136 76.2207 66.8702C74.9014 70.5205 72.9955 73.847 70.7169 76.9758C69.5265 78.6105 68.3794 80.2767 67.1333 82.0411C66.8898 81.4345 66.6744 80.9164 66.473 80.3928C65.8187 78.6921 64.8693 77.2164 63.5374 75.9333C62.7516 75.1763 62.1255 74.1978 61.6175 73.2203C60.6896 71.4345 59.4634 70.1675 57.2613 70.1676C57.2449 70.0967 57.2285 70.0257 57.212 69.9548C57.5991 69.6081 57.9734 69.2457 58.3753 68.917C61.6189 66.2639 63.3397 62.8052 64.2388 58.7385C64.9686 55.4376 66.1862 52.2457 67.164 48.9984C68.5402 44.4283 69.3229 39.7761 68.8792 34.9874C68.5018 30.9144 67.341 27.0966 64.9101 23.6324C64.7992 23.5185 64.7473 23.4792 64.6953 23.44C64.7202 23.5413 64.745 23.6427 64.7699 23.7441C65.3935 26.0856 66.1666 28.3993 66.6088 30.7746C67.4685 35.3918 67.3092 40.0489 66.6934 44.6894C66.194 48.4539 65.6187 52.2061 64.4558 55.8384C63.0676 60.1744 61.2018 64.2363 57.8823 67.4902C57.1987 68.1603 56.7676 69.2415 55.9772 69.605C55.2125 69.9567 54.1276 69.6897 53.1956 69.5848C50.6832 69.3022 48.1744 68.9831 45.67 68.6356C43.9955 68.4033 42.3312 68.0977 40.6044 67.6712C41.3946 67.2577 42.1517 66.7534 42.9822 66.4505C44.5233 65.8886 46.1051 65.4373 47.674 64.9532C48.8333 64.5954 49.9991 64.2585 51.2651 63.8814C52.1962 63.4663 53.0241 63.0822 53.8521 62.698C53.8226 62.6315 53.793 62.565 53.7635 62.4985C52.9278 62.8473 52.0922 63.1962 51.2565 63.545C50.929 63.6283 50.6015 63.7116 50.2022 63.8093C50.0963 63.8228 50.0757 63.839 50.0688 63.8725C48.3555 64.204 46.6382 64.5164 44.9296 64.8707C40.4765 65.7942 37.1244 68.4481 34.2105 71.7645C33.0079 73.1332 31.9154 74.6046 30.6496 75.9099C29.8348 76.7502 28.8209 77.4095 27.8497 78.0828C26.9778 78.6873 26.0183 79.1646 25.1396 79.7603C22.8906 81.2846 20.3698 81.791 17.7154 81.8053C16.6906 81.8108 15.927 81.3464 15.1088 80.6655C13.0216 78.9285 12.06 76.4791 10.6598 74.3054C10.52 74.0883 10.308 73.8428 10.0787 73.7697C7.58104 72.9735 5.73003 71.3129 4.45356 69.1361C2.93455 66.5457 1.64852 63.816 0.320658 61.1175C-0.22562 60.0074 0.00909581 58.8385 0.408674 57.7143C1.40856 54.9014 2.44034 52.0993 3.40421 49.2741C3.88537 47.8637 4.16364 46.3817 4.68155 44.987C5.33234 43.2345 6.11649 41.5301 6.88316 39.8229C7.09824 39.344 7.15099 38.967 6.87697 38.4815C6.32428 37.5021 6.19344 36.4368 6.42141 35.3221C6.70496 33.9356 6.97989 32.5465 7.21411 31.1511C7.5821 28.9586 8.73194 27.1934 10.2397 25.6494C11.884 23.9656 13.5554 22.3032 15.2976 20.7226C16.0333 20.055 16.969 19.6014 17.8339 19.0842C19.0383 18.3639 20.2616 17.6751 21.4768 16.9729C21.4367 16.8845 21.3967 16.7961 21.3566 16.7077C20.3776 17.0008 19.3986 17.294 18.4415 17.5806C17.9212 15.2264 17.363 12.9708 16.9403 10.6899C16.6709 9.236 17.1952 8.75214 18.6216 9.12452C21.8233 9.96035 25.1753 10.2092 28.2406 11.5754C28.3752 11.6354 28.5082 11.6989 28.6812 11.7791C28.2344 12.1006 27.8271 12.3937 27.3701 12.7436C27.3215 12.8276 27.3227 12.8549 27.3239 12.8821C27.3425 12.8791 27.376 12.8788 27.3772 12.8726C27.383 12.841 27.3804 12.8079 27.3807 12.7754C31.2858 12.3726 35.1454 11.8566 38.5724 9.66788C39.6503 8.97946 40.8855 8.52464 42.08 8.03999C42.3924 7.9132 42.8811 7.96316 43.1878 8.12426C44.4996 8.8132 45.3815 9.96164 46.2511 11.1261C47.5671 12.8885 48.8342 14.6997 50.2848 16.347C53.607 20.1196 55.7548 24.4701 57.0216 29.2956C57.1179 29.6625 57.2217 30.0276 57.3293 30.3914C57.3404 30.4289 57.4017 30.4515 57.4797 30.5121C57.8223 28.4527 57.624 26.4526 57.1056 24.481C56.0791 20.5766 53.8592 17.4494 50.6093 15.1219C48.6471 13.7166 47.1961 12.0079 46.2243 9.81498C45.8113 8.88288 45.1786 8.0481 44.5885 7.07465C46.2381 6.65629 47.9242 6.22728 49.6111 5.80112C53.1978 4.89498 56.8399 4.53545 60.5336 4.72317C65.1519 4.95788 69.6878 4.35751 74.1704 3.324C78.116 2.41429 82.0814 2.44055 86.0171 3.15701C90.5218 3.97705 94.9877 5.01168 99.4647 5.97996C99.804 6.05335 100.157 6.28371 100.401 6.5391C101.398 7.58205 102.309 8.71014 103.336 9.72056C105.646 11.9921 106.161 14.6814 105.463 17.7526C104.217 23.2323 103.026 28.7244 101.815 34.2119C101.767 34.4296 101.742 34.6526 101.832 34.9339C101.967 34.7142 102.111 34.4996 102.234 34.2739C105.155 28.9419 106.576 23.2192 106.567 17.156C106.562 13.5666 105.282 10.3753 103.186 7.49377C103.052 7.30978 102.902 7.13765 102.762 6.95837C102.749 6.94156 102.75 6.91292 102.754 6.93091C106.266 7.40683 109.794 7.88483 113.416 8.37567C113.416 8.60154 113.377 8.97995 113.423 9.34794C113.584 10.6485 113.654 11.9765 113.981 13.2364C114.448 15.0346 114.465 16.7713 113.951 18.55C112.952 22.0036 112.328 25.5074 112.815 29.1206C112.934 30.0111 113.147 30.889 113.317 31.7726C113.393 31.7822 113.468 31.7918 113.544 31.8013C113.656 31.572 113.782 31.3483 113.878 31.1127C115.502 27.1531 115.995 23.0486 115.372 18.8223C115.102 16.9953 115.046 15.1924 115.538 13.3991C115.966 11.8389 115.867 10.2929 115.445 8.7511C115.393 8.56077 115.359 8.36539 115.311 8.14456C116.581 7.89729 117.844 7.75062 119.048 7.39925C123.081 6.22158 127.081 4.93127 131.116 3.75956C134.883 2.66557 138.651 1.55328 142.468 0.660086C146.247 -0.22414 150.113 -0.0452101 153.966 0.201764C156.34 0.353914 158.752 0.186023 161.09 0.540821C164.232 1.01771 167.386 1.47193 170.535 1.29289C175.854 0.990475 180.969 1.99172 186.097 3.10941C186.598 3.21859 186.848 3.44884 187.044 3.92871C187.415 4.83827 187.805 5.76568 188.353 6.57219C189.361 8.05376 189.519 9.58428 189.064 11.2757C188.75 12.4447 188.517 13.6418 188.337 14.8398C187.922 17.6054 188.828 20.084 190.107 22.4663C190.152 22.5496 190.236 22.6116 190.472 22.8687C190.649 21.8013 190.877 20.907 190.935 20.0018C191.139 16.8072 191.02 13.6312 190.364 10.4782C190.129 9.34737 190.122 8.16896 190.015 7.01184C189.923 6.01745 189.838 5.02244 189.739 3.90471C191.285 4.31132 192.902 4.68738 194.488 5.16578C196.948 5.90776 199.259 6.99334 201.436 8.36528C201.809 8.60023 201.969 8.84848 202.047 9.30634C202.147 9.89977 202.354 10.5598 202.734 11.0032C203.471 11.8628 203.492 12.6915 203.078 13.6682C202.227 15.6789 202.244 17.6501 203.517 19.6437C204.591 18.714 205.264 17.5896 205.216 16.2336C205.182 15.2537 204.885 14.2458 204.517 13.3251C204.139 12.3759 203.965 11.4988 204.451 10.5006C204.625 10.5986 204.804 10.676 204.957 10.789C206.607 12.007 208.246 13.2389 209.901 14.4491C210.779 15.091 211.677 15.7055 212.576 16.3188C213.468 16.928 214.134 17.5306 213.833 18.847C213.643 19.679 213.822 20.6781 214.098 21.5156C214.595 23.0241 214.51 24.4296 213.941 25.8814C212.83 28.7152 212.213 31.6482 212.348 34.7111C212.358 34.9267 212.391 35.1412 212.432 35.5388C212.764 35.237 212.993 35.0603 213.184 34.8493C215.327 32.4893 216.061 29.6593 215.553 26.5989C215.184 24.3772 215.218 22.2788 216.185 20.16C216.529 20.6549 216.932 21.1394 217.233 21.6807C220.096 26.8367 222.959 31.9926 225.776 37.1743C226.292 38.1233 226.672 39.1662 226.968 40.2076C227.169 40.9149 227.228 41.712 227.123 42.4359C227.07 42.7968 226.557 43.1729 226.167 43.3882C224.57 44.2698 223.785 45.5825 223.987 47.2209C224.727 47.4184 225.492 47.3699 226.065 46.8823C226.599 46.428 227.093 45.8324 227.37 45.1968C227.647 44.5622 227.632 43.8008 227.744 43.095C227.826 43.0873 227.907 43.0796 227.988 43.0719C228.223 44.1957 228.469 45.3175 228.691 46.4438C229.112 48.5784 229.536 50.7127 229.918 52.8546C229.978 53.1896 229.833 53.5667 229.756 53.9188C229.682 54.2624 229.512 54.5952 229.493 54.9389C229.432 56.0065 228.89 56.7087 227.996 57.2444C226.228 58.3037 225.274 59.958 224.697 61.8775C225.906 62.3413 227.638 61.742 228.381 60.4625C228.852 59.6504 229.117 58.7063 229.391 57.7963C229.574 57.1901 229.644 56.5585 230.286 56.1583C230.656 57.6626 231.119 59.111 231.353 60.5955C231.699 62.7891 231.883 65.0084 232.136 67.2167C232.225 67.9963 232.368 68.7745 232.385 69.5555C232.393 69.9031 232.245 70.3622 231.999 70.5832C231.577 70.9631 231.036 71.2237 230.52 71.4859C228.236 72.647 226.289 74.1667 225.087 76.497C225.006 76.6538 224.931 76.8145 224.865 76.978C224.85 77.0158 224.882 77.0726 224.909 77.1999C228.729 76.8944 230.938 74.5039 232.579 71.0858C232.878 72.4063 233.04 73.507 233.381 74.549C234.247 77.193 235.185 79.8135 236.115 82.436C236.265 82.8585 236.382 83.2094 236.091 83.6375C235.918 83.8917 235.861 84.257 235.843 84.5776C235.787 85.5178 235.28 86.0728 234.42 86.3332C232.69 86.8571 231.291 87.8511 230.174 89.2586C230.095 89.3575 230.008 89.4501 229.936 89.5532C229.91 89.5892 229.917 89.6479 229.91 89.6963C230.977 90.5643 232.787 90.5554 233.873 89.5055C234.525 88.8764 235.032 88.0527 235.445 87.2359C235.85 86.4347 236.254 85.7294 237.277 85.4496C238.459 88.7066 240.134 91.6885 242.395 94.4582C240.073 95.6534 238.246 97.2318 237.555 99.8194C239.579 100.353 241.352 98.9515 243.169 95.4017C246.12 98.6254 249.338 101.433 253.939 102.533C253.456 103.192 253.091 103.81 252.612 104.321C250.835 106.216 249.512 108.378 248.625 110.813C248.538 111.051 248.465 111.294 248.396 111.537C248.376 111.605 248.393 111.682 248.393 111.883C248.811 111.75 249.196 111.67 249.543 111.509C252.217 110.272 253.416 108.004 253.888 105.236C253.939 104.937 253.969 104.634 254.026 104.336C254.323 102.778 254.457 102.642 256.01 102.664C258.046 102.693 259.373 101.653 260.33 99.9594C261.302 98.2404 262.275 96.5195 263.327 94.8492C263.847 94.0226 264.453 93.2032 265.181 92.5633C266.91 91.0432 270.037 91.5695 270.909 93.6856C272.094 96.5638 273.026 99.6228 272.608 102.769C272.015 107.235 269.892 110.88 265.99 113.362C262.272 115.726 258.335 117.489 253.914 118.042C250.16 118.512 246.553 117.938 243.016 116.681C235.926 114.161 231.139 109.228 227.869 102.57C224.981 96.6876 223.06 90.5011 221.496 84.1673C220.702 80.9517 219.684 77.7918 218.783 74.6022C218.698 74.2994 218.662 73.9525 218.714 73.6451C220.497 63.2359 220.953 52.7597 220.337 42.0947C220.32 41.6551 220.294 41.3485 220.263 40.982C220.227 40.5119 220.195 40.1015 220.19 39.6458C219.944 36.902 219.67 34.2036 219.396 31.5052C219.331 31.5112 219.267 31.5171 219.202 31.523C219.426 34.2529 219.649 36.9828 219.875 39.7765C219.908 40.3987 219.94 40.9572 219.938 41.5666C219.94 42.1914 219.975 42.7652 220.01 43.3391C220.012 45.4197 220.014 47.5004 219.976 49.7012C219.947 50.4981 219.959 51.1748 219.972 51.8515C219.651 59.3014 218.854 66.6903 217.369 74.0086C216.741 77.1059 216.483 80.2777 215.875 83.3799C215.042 87.6266 214.049 91.8422 213.098 96.0651C212.704 97.8146 212.57 99.5881 213.363 101.209C215.77 106.126 215.947 111.21 214.926 116.481C214.349 119.46 213.858 122.48 213.67 125.503C213.465 128.804 213.621 132.131 213.685 135.445C213.739 138.262 213.719 141.062 213.053 143.824C212.227 147.247 209.806 149.504 206.315 150.055C205.99 150.106 205.662 150.155 205.335 150.167C203.184 150.244 202.336 149.709 201.663 147.867C200.936 145.873 201.287 144.516 202.853 143.274C203.086 143.089 203.325 142.912 203.612 142.692C202.432 142.699 200.935 144.111 200.636 145.462C200.312 146.923 200.627 148.317 201.237 149.765C200.561 149.941 199.965 150.175 199.351 150.239C197.693 150.415 196.028 150.549 194.363 150.639C193.428 150.689 192.679 150.364 192.464 149.306C192.254 148.27 191.935 147.249 191.805 146.205C191.66 145.041 192.054 144.002 192.952 143.203C193.119 143.055 193.343 142.97 193.465 142.782C192.423 142.751 191.261 144.012 191.104 145.434C190.965 146.7 191.075 147.994 191.075 149.287C188.436 149.968 185.685 147.899 185.78 145.184C185.92 141.155 187.653 138.047 191.27 136.094C191.509 135.965 191.756 135.811 191.93 135.609C192.971 134.403 193.95 133.141 195.027 131.969C197.063 129.756 198.592 127.255 199.623 124.431C199.768 124.033 200.1 123.646 200.447 123.391C201.241 122.81 202.077 122.278 202.932 121.789C205.637 120.244 208.077 118.423 209.381 115.473C209.792 114.543 210.008 113.527 210.189 112.492C207.175 116.295 203.779 119.668 200.187 122.895C200.82 120.176 200.564 117.466 200.626 114.773C200.631 114.526 200.788 114.235 200.963 114.045C201.75 113.189 202.517 112.303 203.385 111.534C207.125 108.219 208.591 103.928 208.834 99.0931C208.837 99.0303 208.784 98.9647 208.684 98.7222C208.111 99.9003 207.572 100.94 207.094 102.006C205.954 104.547 204.93 107.144 203.68 109.629C203.092 110.797 202.099 111.763 201.27 112.805C201.125 112.988 200.88 113.091 200.642 113.259C200.303 110.933 199.981 108.689 199.648 106.446C199.457 105.16 199.138 103.917 198.397 102.815C198.295 102.662 198.235 102.431 198.26 102.251C198.72 99.0244 198.882 95.7333 200.351 92.7259C200.963 91.4752 201.575 90.2216 202.109 88.9367C203.612 85.3141 204.32 81.5212 204.352 77.6073C204.367 75.7495 204.288 73.891 204.251 72.0328C204.16 72.022 204.07 72.0112 203.979 72.0004C203.896 72.3497 203.793 72.6957 203.732 73.0488C203.064 76.8896 202.41 80.7329 201.737 84.5728C201.01 88.7248 199.987 92.7831 198.2 96.6354C197.538 98.0637 197.166 99.6264 196.65 101.161C194.997 100.367 193.228 99.5114 191.454 98.6683C190.971 98.4389 190.901 98.1357 191.065 97.6309C192.484 93.2745 193.884 88.9119 195.276 84.5466C196.675 80.1554 198.026 75.7506 198.82 71.1977C199.642 66.4834 199.83 61.7249 199.623 56.9619C199.384 51.4738 198.905 45.996 198.681 40.5075C198.561 37.555 198.756 34.5896 198.813 31.6301C198.818 31.3806 198.853 31.1317 198.736 30.8407C198.635 31.153 198.526 31.4631 198.434 31.7781C197.177 36.0781 197.061 40.478 197.48 44.885C197.824 48.5115 198.377 52.119 198.874 55.73C199.566 60.7567 199.115 65.7033 197.688 70.5387C196.055 76.073 194.211 81.5447 192.567 87.0758C191.552 90.4897 190.74 93.9638 189.827 97.4489C189.799 97.4367 189.658 97.4013 189.547 97.3231C186.838 95.4196 184.447 93.1633 182.249 90.6986C182.067 90.4935 182.021 90.1017 182.029 89.7998C182.204 83.1276 183.782 76.7966 186.477 70.6929C187.596 68.1573 188.488 65.4972 189.221 62.8218C190.084 59.6752 189.624 56.4877 188.925 53.3456C188.281 50.4553 187.548 47.5808 187.029 44.6682C186.321 40.6884 186.23 36.6612 186.521 32.6279C186.542 32.332 186.524 32.0332 186.412 31.7085C186.246 32.3826 186.059 33.0525 185.916 33.7315C184.598 39.965 185.042 46.1134 186.783 52.2078C187.592 55.037 188.231 57.8917 188.122 60.8768C187.975 64.8949 186.801 68.6461 185.294 72.3164C184.371 74.5644 183.372 76.7812 182.433 79.0229C181.214 81.9343 180.691 84.9891 180.626 88.1323C180.619 88.461 180.602 88.7896 180.581 89.1177C180.579 89.1542 180.521 89.187 180.466 89.2457C177.513 86.5568 174.901 83.6118 173.125 79.9854C171.667 77.0085 171.451 73.8721 171.74 70.6432C172.001 67.7183 172.238 64.7911 172.459 61.8628C172.515 61.1101 172.467 60.3494 172.467 59.7516C172.153 62.456 171.82 65.3013 171.494 68.1473C171.292 69.9077 171.022 71.6647 170.921 73.4311C170.686 77.5382 172.213 81.1098 174.455 84.4364C174.751 84.8753 175.067 85.3009 175.438 85.8237C173.343 87.5583 170.952 88.7387 168.528 89.866C166.083 91.0029 163.503 91.5356 160.653 91.567C160.884 90.841 161.068 90.0969 161.355 89.3947C162.446 86.7179 163.441 84.0131 163.97 81.1589C164.008 80.9509 164.027 80.7392 164.084 80.3066C162.563 81.7664 161.644 83.3352 161.027 85.0963C160.38 86.9426 160.328 88.8721 160.283 90.7956C160.266 91.5001 160.024 91.8045 159.313 92.0398C158.246 92.3936 157.217 92.9229 156.249 93.5049C152.592 95.702 148.864 97.7334 144.722 98.8857C144.509 98.9449 144.295 98.9987 144.021 99.0712C144.333 96.1954 145.189 93.6059 146.872 91.2913C148.896 88.5077 150.99 85.7648 152.41 82.5931C153.4 80.3834 153.946 78.1433 153.886 76.3435C153.817 76.3845 153.738 76.4034 153.711 76.4514C151.836 79.8685 149.888 83.2482 148.119 86.7196C146.684 89.535 145.463 92.4593 144.154 95.3383C143.546 96.6735 142.97 98.0233 142.341 99.348C142.23 99.5809 141.953 99.8321 141.709 99.8892C139.068 100.508 136.401 100.586 133.717 100.188C133.364 100.135 133.095 100.087 133.106 99.6141C133.195 95.5557 132.448 91.6186 131.554 87.6745C130.811 84.397 130.461 81.0322 129.858 77.7207C128.627 70.9727 126.532 64.5199 123.111 58.5379C123.013 58.3659 122.907 58.1986 122.656 58.0739C122.732 58.3918 122.793 58.7141 122.887 59.0267C124.982 66.0359 127.054 73.0521 129.19 80.0488C130.209 83.3855 130.84 86.7666 131.046 90.2552C131.225 93.2845 131.626 96.3006 131.928 99.3227C131.941 99.4436 131.943 99.5655 131.956 99.791C131.508 99.7014 131.125 99.6195 130.74 99.5483C128.652 99.1627 126.569 98.7464 124.473 98.4068C122.923 98.1557 121.591 97.4705 120.375 96.5342C120.187 96.3891 120.106 96.0156 120.095 95.7428C119.957 92.4414 119.772 89.1134 118.426 86.0631C116.576 81.8721 116.231 77.5798 116.975 73.0194C117.265 71.8086 117.525 70.7096 117.814 69.5739C118.018 69.0011 118.191 68.4652 118.364 67.9293C118.278 67.9012 118.193 67.8731 118.108 67.8449C117.923 68.4477 117.739 69.0506 117.54 69.7069C117.275 70.7325 117.025 71.7046 116.774 72.6767C116.758 72.7272 116.741 72.7776 116.698 72.8989C116.67 73.0246 116.668 73.0795 116.666 73.1344ZM150.247 27.2785C150.283 27.3129 150.32 27.3474 150.418 27.4699C151.189 29.402 151.96 31.334 152.724 33.2483C152.756 31.21 152.051 29.2437 151.449 27.2598C151.545 27.2324 151.641 27.205 151.738 27.1777C152.168 28.4945 152.597 29.8114 153.027 31.1283C153.227 28.5417 152.539 26.0658 152.16 23.501C152.204 23.4781 152.247 23.4551 152.329 23.5426C152.375 23.6921 152.42 23.8415 152.43 24.0581C152.456 24.0986 152.483 24.1392 152.551 24.288C153.703 27.7707 153.525 31.3637 153.44 34.9556C153.993 32.8479 154.288 30.7007 154.172 28.5376C154.008 25.4693 153.705 22.4084 153.548 19.3289C153.606 19.3249 153.663 19.3208 153.717 19.3206C153.717 19.3206 153.721 19.3169 153.711 19.4089C153.723 19.4374 153.735 19.4659 153.774 19.6081C154.509 23.9428 154.997 28.2873 154.279 32.6902C155.191 30.9949 155.448 29.1563 155.567 27.2902C155.685 25.4378 155.775 23.5835 155.877 21.73C156.252 24.479 156.117 27.2212 155.698 29.9605C155.787 29.9777 155.876 29.9948 155.965 30.012C156.137 29.362 156.309 28.7121 156.481 28.0622C156.538 30.0606 156.269 31.9702 155.347 33.7503C156.846 31.8207 157.456 29.4852 158.354 27.2786C158.031 29.8601 157.013 32.2033 155.921 34.5384C157.041 33.3535 157.763 31.9271 158.644 30.5899C158.69 30.6498 158.736 30.7096 158.755 30.875C158.418 31.5719 158.08 32.2684 157.743 32.9656C157.467 33.5381 157.193 34.1114 156.858 34.6602C156.853 34.6943 156.847 34.7285 156.841 34.7627C156.863 34.7314 156.884 34.7 157.009 34.6669C157.546 34.0013 158.243 33.4092 158.589 32.6559C159.494 30.6844 160.465 28.7007 161.02 26.618C162.915 19.5012 161.219 13.1974 156.251 7.79449C155.02 6.45496 153.473 5.49374 151.66 5.11586C151.229 5.02585 150.609 5.1362 150.277 5.40374C149.396 6.11279 148.497 6.86375 147.832 7.76534C144.502 12.2788 143.506 17.3969 144.221 22.879C144.868 27.8397 147.551 31.6832 151.313 35.0922C150.809 33.0492 150.334 31.1252 149.859 29.2011C151.061 30.6828 151.612 32.4504 152.072 34.2614C152.181 32.7456 151.61 31.4158 151.1 30.0712C150.745 29.1363 150.387 28.2026 150.137 27.2257C150.173 27.2154 150.21 27.2052 150.225 27.2062C150.225 27.2062 150.249 27.2008 150.247 27.2785ZM43.6433 41.443C43.6569 41.4659 43.6704 41.4888 43.6728 41.5987C43.7076 41.6764 43.7424 41.7541 43.7753 41.9502C43.8603 42.3173 43.9452 42.6843 44.0302 43.0514C44.0832 43.0521 44.1362 43.0528 44.1892 43.0535C44.2756 42.6486 44.362 42.2438 44.4332 41.8231C44.4332 41.8231 44.4406 41.8438 44.5087 41.7808C44.5188 41.6904 44.5288 41.6 44.5521 41.5246C44.5521 41.5246 44.5695 41.5147 44.6788 41.5711C44.6788 42.0414 44.6788 42.5116 44.6788 43.0029C44.8366 42.9191 45.0073 42.8285 45.1943 42.8615C45.0989 43.1385 45.0035 43.4154 44.893 43.7365C45.2771 43.4622 45.6138 43.2218 45.9505 42.9814C45.9935 43.0404 46.0364 43.0994 46.0793 43.1584C45.9954 43.3468 45.9115 43.5351 45.88 43.6059C46.0667 43.803 46.1636 43.9635 46.3058 44.0399C46.4655 44.1258 46.6661 44.1357 46.9507 44.1283C47.7712 43.5071 48.5917 42.8858 49.4257 42.2672C49.4257 42.2672 49.4248 42.2535 49.5099 42.2337C49.5803 42.1442 49.6507 42.0547 49.8047 41.9239C49.8806 41.8279 49.9564 41.7318 50.1101 41.5959C50.1544 41.5232 50.1987 41.4504 50.3176 41.3361C50.3772 41.2421 50.4369 41.1481 50.5835 41.0073C50.6275 40.9199 50.6715 40.8325 50.7846 40.7036C50.8486 40.5887 50.9127 40.4737 51.0598 40.2995C51.1324 40.1497 51.2051 39.9998 51.3561 39.7768C51.5951 38.9236 51.834 38.0704 52.1489 37.1522C52.1521 37.0869 52.1553 37.0217 52.2025 36.8371C52.1789 35.9116 52.1553 34.986 52.1466 33.9692C52.1137 33.9192 52.0808 33.8693 52.0689 33.7112C52.0274 33.572 51.986 33.4328 51.9562 33.2299C51.945 33.184 51.9174 33.1526 51.8733 33.0597C51.8733 33.0597 51.8303 32.9971 51.8327 32.9149C51.8001 32.8725 51.7674 32.8302 51.7278 32.6842C51.5085 32.3376 51.2892 31.991 51.059 31.5592C50.9713 31.4894 50.8836 31.4196 50.7687 31.2772C50.7061 31.2347 50.6436 31.1921 50.5304 31.0719C50.3677 31.0567 50.2051 31.0415 49.9369 31.0127C49.7705 31.0619 49.604 31.111 49.3259 31.1547C49.2284 31.2026 49.1308 31.2505 48.9267 31.2809C48.4361 31.5475 47.9456 31.814 47.3676 32.0946C47.3296 32.1379 47.2915 32.1813 47.1577 32.2528C46.9555 32.4314 46.7533 32.6099 46.4774 32.805C46.4357 32.8664 46.3939 32.9277 46.2666 33.0276C46.1045 33.2162 45.9423 33.4048 45.7043 33.6218C45.6815 33.6686 45.6587 33.7154 45.5621 33.7992C45.5373 33.8472 45.5125 33.8951 45.424 33.9568C45.3819 33.9853 45.3687 34.0236 45.3015 34.1209C45.2027 34.2844 45.104 34.4479 44.9281 34.6589C44.9056 34.7134 44.883 34.7679 44.7752 34.8782C44.6058 35.2181 44.4364 35.5579 44.2177 35.923C44.187 35.9527 44.1811 35.9867 44.1356 36.1088C44.1305 36.1436 44.1254 36.1784 44.0574 36.2657C44.0366 36.3413 44.0159 36.4169 43.941 36.5856C43.8828 36.8248 43.8246 37.0641 43.6916 37.3674C43.6847 37.4316 43.6777 37.4958 43.6226 37.6408C43.6212 37.7323 43.6199 37.8238 43.5474 37.979C43.5432 38.0413 43.5391 38.1036 43.4945 38.2878C43.4793 38.9149 43.464 39.5419 43.4156 40.2369C43.4377 40.2807 43.4597 40.3245 43.454 40.465C43.475 40.5622 43.4959 40.6595 43.5002 40.8636C43.552 41.0309 43.6037 41.1983 43.6577 41.3632C43.6577 41.3632 43.655 41.3642 43.6433 41.443ZM118.525 66.9678C118.452 67.1575 118.378 67.3472 118.305 67.5369C118.368 67.5523 118.432 67.5677 118.495 67.5832C118.53 67.3556 118.564 67.1281 118.652 66.8619C118.651 66.8154 118.65 66.7689 118.649 66.7224C118.635 66.7838 118.62 66.8451 118.525 66.9678ZM149.181 37.3119C149.134 37.2411 149.088 37.1704 149.022 36.9899C148.331 35.5724 147.641 34.1548 146.95 32.7373C148.228 34.0015 148.908 35.6612 149.835 37.1654C149.869 37.017 149.857 36.8932 149.834 36.7718C149.386 34.4581 148.056 32.5992 146.7 30.7639C144.13 27.2866 140.79 25.1531 136.378 24.8619C132.329 24.5947 128.692 25.4933 125.694 28.3906C125.217 28.8515 125.059 29.3567 125.072 30.0142C125.149 33.7865 126.763 36.8895 129.19 39.649C134.01 45.1298 141.248 46.4944 147.511 42.8943C145.273 42.3998 143.036 41.9053 140.798 41.4107C140.801 41.3675 140.805 41.3242 140.808 41.281C142.948 41.4067 145.087 41.5325 147.34 41.6648C144.391 40.4689 141.33 40.8679 138.371 40.5183C141.193 40.1628 144.003 40.1085 146.823 40.7739C145.897 40.2842 144.946 39.912 143.965 39.6491C142.97 39.3821 141.945 39.2229 140.933 39.0165C140.946 38.9413 140.958 38.866 140.97 38.7907C142.429 39.0028 143.889 39.2149 145.444 39.4408C144.502 38.5127 143.266 38.2803 142.143 37.8605C140.98 37.4257 139.778 37.0933 138.593 36.716C142.199 36.7737 145.111 38.6198 147.997 40.5327C148.065 40.4132 148.133 40.2937 148.201 40.1742C146.751 39.1354 145.38 37.9571 143.834 37.0908C141.564 35.8189 139.169 34.77 136.747 33.45C136.717 33.3933 136.686 33.3366 136.798 33.3189C140.507 34.6587 144.089 36.2334 147.132 38.8721C146.788 38.2456 146.442 37.6115 145.927 37.1785C144.403 35.8978 142.812 34.6964 141.294 33.372C141.349 33.3303 141.404 33.2886 141.556 33.2861C143.144 34.3945 144.731 35.5029 146.319 36.6113C146.347 36.6039 146.375 36.5964 146.403 36.589C145.915 36.0146 145.428 35.4403 144.94 34.8659C144.987 34.8167 145.034 34.7675 145.081 34.7183C146.342 35.5603 147.386 36.6306 148.212 37.9552C147.913 36.3179 146.719 35.1858 145.966 33.7453C146.019 33.6986 146.073 33.6518 146.161 33.6687C146.192 33.7066 146.227 33.7393 146.299 33.8351C146.331 33.8784 146.373 33.9039 146.51 33.9687C147.208 35.0111 147.907 36.0534 148.649 37.1758C148.752 37.3245 148.856 37.4732 148.966 37.6754C148.966 37.6754 149.002 37.7153 149.01 37.8232C149.179 38.1506 149.347 38.478 149.516 38.8054C149.576 38.7766 149.637 38.7478 149.697 38.719C149.538 38.3065 149.379 37.8941 149.213 37.4338C149.213 37.4338 149.179 37.3995 149.181 37.3119ZM39.6534 44.049C39.7674 44.1263 39.8814 44.2035 40.05 44.3681C40.4008 44.607 40.7515 44.846 41.1625 45.126C41.1388 44.7307 41.1189 44.3994 41.1895 44.0227C41.2509 44.1004 41.3123 44.178 41.3804 44.3637C41.6285 44.6257 41.8766 44.8878 42.1337 45.1592C42.1337 45.1592 42.1433 45.1681 42.1968 45.2463C42.6616 45.2415 42.5738 45.0039 42.4246 44.7244C42.3165 44.5217 42.2293 44.3077 42.2511 44.0755C42.3618 43.6813 42.4726 43.2871 42.5948 43.0199C42.6443 43.3794 42.6938 43.739 42.8302 44.0424C42.97 43.8244 43.1098 43.6064 43.2812 43.2633C43.2534 42.3066 43.3096 41.3386 43.1837 40.395C42.5975 36.004 38.1833 34.2133 35.5138 34.9855C35.1383 35.0941 34.7093 35.4439 34.5467 35.7942C33.3997 38.266 34.0914 41.695 36.0883 43.7501C37.2558 44.9516 39.1766 45.6737 40.8734 45.5046C40.3143 44.9882 39.8006 44.5136 39.2743 44.0273C39.4356 44.0035 39.5689 43.9838 39.7038 43.9528C39.7038 43.9528 39.6925 43.9515 39.6534 44.049ZM45.6286 51.1095C45.6286 51.1095 45.6108 51.1032 45.6093 50.9906C45.6192 50.9202 45.6291 50.8498 45.7449 50.7425C46.667 51.8711 47.7486 52.7691 49.2557 52.9349C52.4157 53.2824 54.7775 51.922 56.6152 49.4464C57.0284 48.8896 57.1079 48.3144 56.9814 47.6593C56.5593 45.4746 54.8664 43.8194 52.5132 43.3352C50.4405 42.9087 48.6344 43.7211 46.8564 44.6062C46.514 44.7767 46.235 45.0745 45.9375 45.3151C45.9375 45.3151 45.939 45.3044 45.8537 45.2807C45.8257 45.2898 45.7976 45.2989 45.6641 45.3272C45.4829 45.656 45.3016 45.9847 45.1159 46.3215C45.5463 46.4928 45.9666 46.66 46.3938 46.8285C46.3938 46.8285 46.394 46.8356 46.2719 46.826C46.0077 46.8835 45.7393 46.9265 45.4802 47.0017C45.0163 47.1365 45.043 47.338 45.5287 47.5026C45.6094 47.4957 45.6902 47.4887 45.805 47.5289C45.8545 47.5155 45.904 47.5022 46.0438 47.49C46.1031 47.5002 46.1624 47.5104 46.2744 47.5854C46.3252 47.6496 46.3759 47.7137 46.3592 47.8602C46.2199 47.8621 46.0807 47.8641 45.8679 47.7946C45.5915 47.9052 45.315 48.0157 45.0385 48.1263C45.0514 48.1885 45.0643 48.2507 45.0771 48.313C45.3038 48.3805 45.5305 48.4481 45.8641 48.5572C46.0277 48.7382 46.1913 48.9192 46.3548 49.1003C46.325 49.1403 46.2951 49.1803 46.2652 49.2203C45.7517 48.9881 45.2381 48.756 44.6932 48.5097C45.0364 49.3317 45.3404 50.0598 45.5356 50.7917C45.2295 50.3955 44.9425 49.9822 44.6091 49.6104C44.4423 49.4243 44.1771 49.2513 44.0208 49.6586C43.7719 49.427 43.5229 49.1955 43.2739 48.9639C43.1999 49.0163 43.1258 49.0688 43.0517 49.1212C43.1183 49.3172 43.174 49.5178 43.2546 49.7079C43.324 49.8715 43.4218 50.0232 43.5058 50.2822C43.5252 50.347 43.5445 50.4118 43.532 50.4934C43.532 50.4934 43.5071 50.5196 43.4328 50.512C43.384 50.5364 43.356 50.5756 43.2742 50.6414C43.2742 50.6414 43.1985 50.6405 43.1294 50.5767C43.0061 50.4921 42.8828 50.4074 42.7412 50.2221C42.6935 50.0731 42.6458 49.924 42.549 49.6217C42.5177 50.2862 42.4947 50.7726 42.4717 51.259C42.3786 51.2544 42.2854 51.2498 42.1923 51.2452C42.1923 51.0366 42.1923 50.8281 42.2576 50.5514C42.1331 50.3368 42.0085 50.1222 41.8276 49.8104C41.5837 50.5571 41.3996 51.1207 41.1976 51.7668C41.2032 51.7944 41.2087 51.8219 41.225 51.8473C41.225 51.8473 41.221 51.8369 41.1257 51.8677C41.0665 51.8829 41.0073 51.8982 40.9481 51.9135C40.9448 51.8888 40.9334 51.8619 40.9393 51.8395C41.1234 51.1451 41.3091 50.4511 41.5247 49.6445C40.9053 50.2412 40.3827 50.7447 39.7477 51.1764C40.1294 50.486 40.5111 49.7956 41.0003 48.9107C40.3857 49.2758 39.9789 49.5175 39.4922 49.7071C39.8183 49.3287 40.1445 48.9504 40.4509 48.595C40.2875 48.539 40.0371 48.4532 39.8252 48.2641C40.0996 47.5612 39.5344 47.3998 39.2259 47.1306C39.4748 47.1306 39.7237 47.1306 39.9725 47.1306C39.9371 47.066 39.9016 47.0014 39.8661 46.9367C40.0309 46.8769 40.1958 46.817 40.437 46.7294C39.9283 46.5245 39.4709 46.3404 39.0136 46.1562C39.0235 46.1191 39.0333 46.082 39.0432 46.0449C39.4227 46.1279 39.8022 46.2108 40.1816 46.2937C40.0168 46.0713 39.8177 45.9119 39.5907 45.8352C35.9004 44.5882 32.4019 45.1912 29.8643 48.4932C28.204 50.6537 28.3285 51.5432 30.8097 53.1236C33.4465 54.803 36.9214 54.1414 39.1755 51.7477C39.3686 51.5426 39.6361 51.4076 39.8854 51.3483C38.3993 53.3 37.6478 55.4827 37.9054 57.9467C38.0951 59.7617 38.68 61.4044 40.2302 62.5472C40.8644 63.0147 41.4824 63.0849 42.1913 62.6509C43.6396 61.7641 44.7238 60.5508 45.4847 59.0576C46.7952 56.4857 47.1623 53.8726 45.6872 51.1843C45.6799 51.1473 45.6574 51.1279 45.6286 51.1095ZM148.09 39.2389L148.079 39.2013C148.079 39.2013 148.109 39.2255 148.076 39.3308C148.751 40.4332 149.724 41.1254 150.945 41.4748C150.259 40.3794 149.339 39.5896 148.09 39.2389ZM148.505 47.1409C149.688 46.5581 150.526 45.6497 151.065 44.4586C149.903 45.0863 148.842 45.8104 148.383 47.151L148.374 47.1701C148.374 47.1701 148.397 47.1364 148.505 47.1409ZM48.2146 19.1362C48.7681 19.7714 49.3216 20.4067 49.9656 21.1457C49.6302 20.1459 49.0857 19.4446 48.2864 18.8027C47.7544 18.2344 47.3041 17.5445 46.6747 17.1209C44.9382 15.9522 43.1187 14.9077 41.3479 13.7888C40.3085 13.132 39.3074 12.4149 38.2708 11.7534C38.0423 11.6076 37.6757 11.4425 37.4783 11.5285C36.8974 11.7815 36.3141 12.0907 35.8324 12.4971C34.8487 13.3272 34.035 14.3124 32.8139 14.9082C31.6004 15.5004 30.5444 16.4177 29.4276 17.2042C29.0006 17.5049 28.5967 17.8382 28.0179 18.2828C28.3547 18.2646 28.4694 18.2909 28.5482 18.2493C29.7779 17.6003 31.0006 16.938 32.2318 16.2918C32.4187 16.1937 32.7085 16.0453 32.8334 16.119C33.3173 16.4043 33.5932 16.1086 33.8973 15.84C34.4095 15.3876 34.9153 14.928 35.4315 14.4802C35.5614 14.3674 35.7808 14.1721 35.8565 14.2116C36.5334 14.5645 36.8728 14.0696 37.2331 13.6428C37.7823 14.5547 38.345 15.3856 38.8026 16.2709C39.6951 17.9978 40.3132 19.8421 41.3747 21.5126C42.2127 22.8314 42.5833 24.4427 43.2096 25.9034C43.3946 26.3349 43.7208 26.9977 44.0227 27.0205C44.5084 27.0573 44.6107 27.2935 44.7692 27.5875C44.9916 28 45.1968 28.4217 45.4093 28.8395C45.4758 28.8153 45.5423 28.7911 45.6087 28.7669C45.3252 27.9237 45.0646 27.0716 44.745 26.2422C44.64 25.9697 44.3824 25.7559 44.1946 25.5153C44.1254 25.5587 44.0562 25.6021 43.9871 25.6455C43.4739 21.5931 40.5918 18.4448 39.7642 14.4806C39.9105 14.4806 40.0743 14.4367 40.2004 14.4871C42.7172 15.4933 45.2426 16.4856 47.3113 18.3239C47.5905 18.572 47.885 18.8031 48.2146 19.1362ZM87.7307 8.86602C85.7455 7.73609 83.7602 6.60616 81.8881 5.5406C83.8417 10.0811 94.876 14.0567 99.0575 11.5235C96.4173 11.1585 94.5742 9.54962 92.7613 7.87005C91.9461 7.1149 91.1082 6.36944 90.203 5.72931C87.7225 3.97513 84.9135 3.88302 81.8718 4.17272C83.792 6.06397 85.8794 7.42585 88.0091 8.76336C87.9509 8.80869 87.8926 8.85403 87.7307 8.86602ZM217.419 58.5708C217.432 58.5702 217.445 58.5696 217.458 58.569C217.443 58.5582 217.428 58.5473 217.382 58.4381C214.603 56.4464 211.557 55.6199 208.22 56.6134C206.082 57.25 203.154 60.0141 202.935 61.3425C204.418 60.7201 205.453 60.6659 207.062 61.2216C208.161 61.6011 209.225 62.0801 210.321 62.4682C213.139 63.4656 216.121 62.4222 217.832 59.8311C214.847 58.4981 211.732 58.1968 208.521 58.5321C209.716 58.0353 212.284 57.7976 214.065 58.0181C215.189 58.1573 216.305 58.3546 217.419 58.5708ZM212.771 67.4631C212.744 67.3734 212.717 67.2838 212.732 67.0994C214.134 65.2618 215.536 63.4242 216.845 61.7074C212.118 62.9674 206.898 72.9414 208.607 77.9496C209.377 75.2212 211.359 73.5694 213.374 71.9401C213.944 71.4795 214.499 70.9962 215.029 70.4906C217.451 68.1814 218.104 65.2203 218.203 61.8829C216.041 63.5486 214.382 65.4673 212.771 67.4631ZM106.253 111.898C106.207 111.839 106.162 111.78 106.182 111.643C108.02 110.455 109.858 109.267 111.594 108.144C106.856 107.639 97.9483 115.968 98.4597 120.68C99.3894 119.367 100.585 118.447 101.987 117.823C103.118 117.319 104.284 116.895 105.442 116.455C107.235 115.775 108.916 114.928 110.176 113.416C111.297 112.071 112.134 110.573 112.762 108.774C110.355 109.537 108.333 110.707 106.253 111.898ZM15.295 57.3709C14.8117 57.7717 14.3845 58.2931 13.834 58.5492C12.5074 59.1662 11.1504 59.7473 9.75475 60.1781C8.23612 60.6468 6.70395 60.7162 5.16201 59.9954C4.6228 59.7434 3.82579 59.8645 3.19698 60.0197C1.89938 60.3399 1.12098 59.99 0.815019 58.7774C0.790265 58.6793 0.758495 58.583 0.692191 58.357C0.379169 59.3691 0.686668 60.1401 1.09138 60.8769C1.48062 61.5855 2.05114 62.2217 2.3088 62.9701C2.96797 64.8847 4.13325 66.3839 5.6684 67.6556C6.56477 68.3981 7.22099 69.301 7.36956 70.5201C7.47348 71.373 7.99788 71.8719 8.82543 72.1857C10.0983 72.6682 11.4889 73.0385 12.1702 74.6297C14.1048 73.9175 16.0131 73.1919 17.9398 72.5189C18.5506 72.3056 19.2121 72.1077 19.8475 72.1165C22.6509 72.1555 25.4533 72.2724 27.9534 72.3516C27.6217 72.2639 26.975 72.0527 26.3123 71.9244C22.8575 71.256 19.4216 71.2639 16.0135 72.2443C14.837 72.5827 13.6781 72.5679 12.5313 72.036C11.6842 71.6431 10.7629 71.4048 9.93145 70.9851C9.27155 70.6521 8.60525 70.2347 8.10713 69.7005C7.33623 68.8739 6.71642 67.9078 6.01399 67.0154C5.12226 65.8826 5.34482 65.2044 6.74273 64.8917C7.26533 64.7749 7.68784 64.5329 7.62732 63.9461C7.5717 63.4067 7.77639 63.0987 8.20338 62.8264C8.42917 62.6825 8.67531 62.4585 8.75617 62.2181C9.15202 61.0413 10.183 60.7446 11.1734 60.3533C12.1363 59.9729 13.1079 59.596 14.021 59.114C14.7154 58.7475 15.3006 58.2016 15.3734 57.2968L15.3985 57.3151C15.3985 57.3151 15.3761 57.3094 15.295 57.3709ZM115.705 94.7187C115.74 97.9353 115.423 101.121 114.862 104.297C115.078 103.977 115.252 103.647 115.384 103.301C116.537 100.264 117.054 97.0966 117.246 93.8733C117.431 90.7546 116.559 87.9122 114.8 85.3456C114.468 84.8599 114.009 84.4604 113.608 84.0212C113.551 84.0641 113.494 84.107 113.436 84.15C113.965 86.0941 113.759 88.0241 113.327 89.939C113.015 91.321 112.638 92.688 112.295 94.0631C111.829 95.9353 111.431 97.8172 111.593 99.7664C111.76 101.775 112.507 103.556 113.75 105.336C114.783 101.645 115.286 98.056 115.482 94.4251C115.552 94.4762 115.622 94.5272 115.705 94.7187ZM69.8444 7.03014C72.1886 6.11844 74.5327 5.20673 76.9598 4.26279C76.4493 4.29836 76.0066 4.30988 75.5688 4.36287C72.7602 4.70285 70.0957 5.56144 67.4671 6.57522C64.7123 7.6377 62.4952 9.35725 60.8372 11.794C60.2187 12.703 59.6099 13.6253 59.5031 14.9026C61.376 13.1997 63.5895 12.5117 65.8668 11.975C67.1468 11.6734 68.4374 11.4165 69.7163 11.1105C71.9739 10.5702 74.149 9.83956 75.8915 8.205C76.8818 7.27608 77.7242 6.2354 78.3585 4.88545C75.3991 5.42824 72.7068 6.36071 69.9355 7.31011C69.8821 7.24427 69.8287 7.17842 69.8444 7.03014ZM216.568 48.4458C217.323 51.2731 218.077 54.1004 218.832 56.9278C218.768 56.7286 218.801 56.4907 218.815 56.2517C219.002 53 218.41 49.8467 217.592 46.725C216.757 43.5341 214.937 41.0111 212.289 39.08C211.82 38.7376 211.261 38.5182 210.743 38.242C211.935 40.2784 212.346 42.4335 212.571 44.641C212.687 45.7745 212.762 46.9121 212.867 48.0467C213.076 50.2974 213.339 52.5362 214.477 54.5568C215.319 56.0503 216.455 57.2657 217.984 58.3301C217.764 54.8284 217.119 51.5684 216.309 48.3506C216.378 48.3493 216.447 48.3481 216.568 48.4458ZM141.323 48.4965C141.247 48.4475 141.171 48.3984 141.185 48.2909C143.508 47.4283 145.831 46.5656 148.153 45.703C148.16 45.6788 148.166 45.6547 148.172 45.6305C146.098 45.9453 144.024 46.2601 141.95 46.5749C141.937 46.5003 141.924 46.4256 141.91 46.351C143.626 45.9256 145.342 45.5002 147.057 45.0748C146.322 44.9089 145.563 44.8019 144.843 44.9255C137.952 46.1093 132.769 49.5673 130.061 56.2243C128.89 59.1016 128.411 62.0581 129.217 65.1363C129.379 65.7525 129.719 66.1475 130.266 66.4429C134.838 68.9115 139.304 68.3896 143.643 65.8886C146.456 64.2671 148.35 61.8166 149.673 58.8585C150.993 55.9083 150.886 52.7764 151.132 49.6822C151.067 49.6523 151.003 49.6225 150.938 49.5926C149.894 51.368 148.85 53.1433 147.805 54.9187C147.724 54.8729 147.642 54.8271 147.561 54.7813C148.339 52.9641 149.118 51.147 149.896 49.3298C149.31 50.0339 148.799 50.7838 148.415 51.5941C147.712 53.0805 147.083 54.6026 146.323 56.1123C146.256 56.111 146.189 56.1096 146.141 55.9978C147.055 53.8202 147.969 51.6426 148.952 49.3005C148.412 49.9841 147.967 50.5491 147.439 51.0675C147.407 50.9825 147.375 50.8975 147.359 50.7208C147.349 50.6914 147.339 50.6621 147.39 50.6233C147.378 50.597 147.366 50.5706 147.354 50.5443C147.35 50.5769 147.345 50.6095 147.24 50.5821C146.849 50.9281 146.393 51.2241 146.077 51.6291C144.849 53.2038 143.665 54.8131 142.383 56.375C142.348 56.3278 142.313 56.2807 142.321 56.1377C144.026 53.129 146.313 50.6009 148.967 48.3754C148.905 48.3065 148.844 48.2377 148.783 48.1688C148.551 48.2808 148.319 48.3928 147.998 48.4945C147.841 48.4692 147.684 48.4439 147.418 48.4658C147.339 48.4712 147.26 48.4766 147.145 48.4374C147.107 48.4641 147.068 48.4908 146.937 48.5744C146.495 48.7632 146.014 48.8914 145.62 49.1517C144.143 50.1269 142.696 51.1452 141.156 52.1389C141.096 52.0697 141.036 52.0005 141.048 51.8541C142.414 50.8073 143.78 49.7605 145.146 48.7136C145.122 48.6642 145.097 48.6147 145.073 48.5652C144.237 48.9611 143.402 49.3569 142.566 49.7527C144.11 48.4597 145.739 47.3359 147.721 46.8268C145.475 46.9056 143.489 47.868 141.323 48.4965ZM161.576 62.0961C160.511 59.526 159.546 56.9087 158.348 54.4027C157.568 52.7726 156.457 51.2999 155.474 49.7696C155.342 49.5636 155.092 49.4332 154.897 49.2678C154.854 49.3135 154.812 49.3593 154.769 49.405C157.018 52.7262 158.476 56.3443 158.861 60.4215C158.772 60.4502 158.683 60.4788 158.586 60.3768C158.122 57.621 157.395 54.9533 156.04 52.5074C156.284 54.1619 156.527 55.8163 156.77 57.4708C156.685 57.4863 156.599 57.5018 156.514 57.5172C156.142 55.3647 155.915 53.17 154.762 51.2372C155.552 54.457 155.536 57.6927 155.161 60.942C154.921 57.4501 155.196 53.899 154.032 50.5549C154.174 53.1488 154.316 55.7657 154.458 58.3827C154.383 58.3878 154.307 58.3928 154.231 58.3979C154.043 55.669 153.683 52.9756 152.668 50.4149C152.479 51.018 152.375 51.6121 152.24 52.1989C152.103 52.7904 151.928 53.3728 151.783 53.9624C150.248 60.2047 151.217 65.9767 155.104 71.1596C156.953 73.6246 159.228 75.6599 162.309 76.3132C166.004 77.0968 166.065 76.8906 167.861 73.9953C167.888 73.9523 167.91 73.9065 167.933 73.8615C169.964 69.9478 170.483 65.789 169.907 61.4642C169.508 58.4672 168.707 55.6063 166.817 53.1637C164.796 50.553 162.322 48.5089 159.243 47.2586C158.796 47.0771 158.288 47.0463 157.808 46.9458C158.506 47.5286 159.252 47.9032 159.949 48.3527C160.599 48.7713 161.433 48.9975 161.895 49.9849C160.028 48.8959 158.324 47.9882 156.562 47.4462C158.172 48.6835 159.825 49.9536 161.508 51.3039C161.557 51.3292 161.606 51.3546 161.733 51.4106C161.806 51.4925 161.879 51.5744 161.894 51.7572C161.831 51.8031 161.769 51.8489 161.616 51.8522C160.287 50.8493 159.107 49.6107 157.418 49.1584C158.674 50.1852 159.736 51.3425 160.418 52.8026C158.792 51.1416 158.745 51.1022 158.119 51.0418C159.628 52.6114 160.747 54.4232 161.628 56.4411C161.572 56.4848 161.516 56.5285 161.392 56.4932C161.169 56.1255 160.976 55.7356 160.718 55.3941C159.595 53.9059 158.468 52.4202 157.304 50.9642C157.115 50.7278 156.733 50.6457 156.481 50.4369C156.445 50.4253 156.409 50.4137 156.372 50.402C156.401 50.4281 156.429 50.4541 156.456 50.5868C159.149 54.0372 160.627 58.0587 161.808 62.1989C161.742 62.2004 161.676 62.2018 161.576 62.0961ZM170.327 36.5277C165.875 38.0108 161.353 39.3283 157.438 42.069C159.436 41.4443 161.378 40.6106 163.404 40.1326C166.136 39.488 168.426 39.5529 169.211 39.8117C167 40.1502 164.4 40.53 161.808 40.9612C161.327 41.0414 160.88 41.3287 160.417 41.5205C161.268 41.6315 162.048 41.5907 162.821 41.6431C163.583 41.6948 164.339 41.8409 165.097 41.9456C162.989 42.1731 160.858 41.8467 158.862 42.6619C160.205 42.828 161.543 42.8718 162.861 43.0623C164.811 43.3444 166.098 43.8351 166.624 44.3757C163.809 43.8896 161.087 42.9063 158.219 43.5232C159.347 43.7107 160.494 43.7777 161.611 43.9945C162.748 44.2149 163.855 44.583 164.976 44.8865C162.56 44.661 160.17 44.4841 157.71 44.8998C158.811 45.673 159.813 46.3947 160.833 47.0893C164.809 49.7966 169 50.2197 173.216 47.8462C178.367 44.9464 181.016 40.3247 181.871 34.5426C182.114 32.9 181.612 31.6542 180.614 30.4392C176.268 25.1484 168.587 25.3535 164.223 28.4475C161.342 30.4895 159.18 33.1888 157.335 36.1556C156.931 36.8055 156.697 37.5613 156.385 38.2683C156.433 38.2927 156.481 38.3171 156.529 38.3416C157.459 37.053 158.39 35.7644 159.32 34.4758C159.401 34.532 159.481 34.5881 159.561 34.6442C158.715 35.9996 157.869 37.3549 157.022 38.7103C157.088 38.7583 157.154 38.8063 157.22 38.8544C157.567 38.4819 157.916 38.1121 158.259 37.7364C159.33 36.5642 160.398 35.3899 161.557 34.2325C161.628 34.2768 161.699 34.3211 161.683 34.4183C160.306 36.2601 158.55 37.8183 157.657 39.5011C158.111 39.1146 158.842 38.4561 159.61 37.8441C161.423 36.3986 161.462 36.3889 162.009 36.4327C161.138 37.2384 160.264 38.0478 159.481 38.7734C161.436 37.6868 163.488 36.5467 165.639 35.4321C165.72 35.4853 165.801 35.5386 165.797 35.6546C164.271 36.5544 162.698 37.3837 161.238 38.3804C160.358 38.9819 159.654 39.8436 158.856 40.6234C158.857 40.6084 158.857 40.5934 158.963 40.6329C159.929 40.098 160.844 39.4239 161.87 39.0548C164.701 38.0355 167.579 37.1437 170.449 36.2992C170.445 36.3645 170.44 36.4298 170.327 36.5277ZM172.722 56.4767C173.574 58.6009 174.783 60.4919 176.534 61.9784C179.015 64.0854 181.805 64.9229 185.003 63.8229C185.34 63.707 185.574 63.5856 185.503 63.1361C184.916 59.4059 183.5 56.1155 180.376 53.8072C177.906 51.982 175.178 51.5564 172.252 52.6263C171.809 52.7883 171.654 52.9955 171.806 53.4633C172.118 54.4244 172.394 55.3972 172.722 56.4767ZM165.947 15.2174C165.051 17.5087 164.647 19.8884 164.621 22.344C164.615 22.9087 164.77 23.086 165.362 23.0409C166.811 22.9306 168.141 22.5049 169.356 21.7232C171.848 20.1186 173.387 17.7898 174.366 15.0472C175.274 12.5027 175.53 9.88623 175.244 7.14227C173.98 7.124 172.857 7.46824 171.808 8.04368C168.932 9.62096 167.204 12.1555 165.947 15.2174ZM144.037 74.3273C142.375 78.3882 141.964 82.5101 143.345 86.7666C149.776 83.6148 152.245 73.052 149.069 67.7531C146.775 69.4304 145.185 71.6349 144.037 74.3273ZM133.072 11.2943C131.838 10.9817 130.594 10.8551 129.328 11.0526C129.66 17.6769 136.198 23.8233 141.745 23.0658C141.88 18.8103 138.811 12.9161 133.072 11.2943ZM119.39 48.9119C118.288 49.9208 117.34 51.0425 116.707 52.4065C122.376 55.8005 130.039 52.8383 132.165 46.8551C131.021 46.5406 129.908 46.097 128.755 45.9432C125.236 45.4734 122.174 46.6184 119.39 48.9119ZM104.02 105.728C104.694 106.261 105.327 106.856 106.047 107.317C108.013 108.574 111.321 108.257 113.091 106.668C110.876 104.587 108.25 103.295 105.347 102.499C108.226 102.651 110.727 103.836 113.145 105.293C111.353 102.68 108.971 100.898 105.795 100.518C103.317 100.221 99.337 101.83 98.5241 103.226C99.784 103.032 100.917 103.34 101.923 104.051C102.624 104.546 103.27 105.118 104.02 105.728ZM80.9619 18.1203C81.7119 18.5988 82.4618 19.0774 83.2117 19.556C83.2764 19.5033 83.341 19.4506 83.4057 19.398C82.1992 17.628 82.5124 15.7812 83.0153 13.9187C83.2262 13.1377 83.4332 12.3527 83.5821 11.5583C84.0796 8.90442 82.2825 5.65479 79.8973 4.86529C79.0112 7.63584 79.162 10.458 79.522 13.2944C78.565 10.7371 78.4262 8.10811 78.75 5.28122C78.5713 5.48887 78.4934 5.55218 78.4499 5.63377C77.046 8.2638 76.8026 11.0524 77.5975 13.8732C78.0999 15.6557 79.4689 16.9052 80.9619 18.1203ZM105.467 54.5707C105.48 55.8355 105.509 57.1004 105.502 58.365C105.491 60.4879 105.588 62.6223 105.402 64.7308C105.095 68.2048 104.379 71.634 104.427 75.1514C104.485 79.4824 105.293 83.5958 107.515 87.3653C107.626 87.5534 107.769 87.7225 107.897 87.9005C107.972 87.4669 107.898 87.1276 107.817 86.7902C106.522 81.4132 106.303 75.9275 106.116 70.4332C105.997 66.9353 105.94 63.4487 106.614 59.9939C107.252 56.7209 107.218 53.4496 106.579 50.1859C106.393 49.2378 106.1 48.3109 105.855 47.3742C105.766 47.387 105.677 47.3997 105.588 47.4124C105.549 49.7511 105.51 52.0898 105.467 54.5707ZM93.2149 89.6415C93.8473 91.0242 94.4797 92.4068 95.1121 93.7895C95.268 93.3551 95.3372 92.9517 95.2563 92.5811C94.8416 90.6823 94.5651 88.7279 93.9083 86.9132C92.825 83.9201 91.491 81.0177 90.2553 78.0801C89.428 76.1135 88.9556 74.0722 89.1711 71.9387C89.4688 68.9909 89.269 66.0758 88.7752 63.1711C88.6513 62.4418 88.4514 61.7253 88.2864 61.0029C88.2209 61.0063 88.1555 61.0098 88.09 61.0132C88.035 61.2415 87.9405 61.4682 87.931 61.6985C87.8437 63.8195 87.5514 65.9613 87.7436 68.0581C88.0618 71.5285 88.6502 74.9774 89.2072 78.422C89.8443 82.3622 91.4857 85.9609 93.2149 89.6415ZM71.5295 15.0886C72.0505 16.2076 72.4559 17.4019 73.1223 18.4264C73.9311 19.6701 74.24 20.972 74.3673 22.4186C74.5974 25.0345 74.9705 27.638 75.2951 30.2452C75.3204 30.449 75.4325 30.642 75.5043 30.8399C75.7936 30.5562 75.9293 30.2699 76.0225 29.9703C76.884 27.2017 76.5256 24.5408 75.4196 21.9001C74.9072 20.6765 74.4983 19.3824 74.253 18.0806C73.9052 16.2339 72.9789 14.8056 71.5858 13.6234C71.5069 13.5565 71.3703 13.5576 71.1312 13.4911C71.2696 14.0542 71.3824 14.5132 71.5295 15.0886ZM20.8606 35.3558C19.5091 36.2531 18.4891 37.4075 17.9684 38.8811C18.624 38.7799 19.2291 38.6374 19.84 38.6046C20.6216 38.5626 21.4087 38.592 22.1922 38.6213C23.3333 38.6639 24.3484 38.2812 25.246 37.6396C25.5515 37.4212 25.7819 36.9685 25.8577 36.5855C26.0144 35.7936 25.6218 35.2269 24.7547 34.9256C25.0613 34.8232 25.2489 34.7606 25.6195 34.6368C23.8432 34.3186 22.3516 34.4878 20.8606 35.3558ZM52.368 60.0345C52.691 57.0541 50.8351 54.4979 48.5292 54.8135C48.1182 56.2609 48.0116 57.7226 48.499 59.1896C48.8371 60.2068 49.4264 61.0394 50.3841 61.5621C51.6734 62.2659 52.018 62.1028 52.2845 60.6916C52.3172 60.5182 52.3302 60.3411 52.368 60.0345ZM52.439 40.4728C52.3239 40.6914 52.2087 40.91 52.096 41.1242C54.5153 42.7241 58.546 40.5331 59.7124 36.9918C58.7292 36.4994 57.719 36.5395 56.7118 36.8714C54.8501 37.4849 53.5171 38.7516 52.439 40.4728ZM33.13 61.3236C34.978 60.0008 36.1467 58.2841 36.3559 55.9408C33.4308 56.1341 30.1372 59.4765 29.9995 62.3559C31.1391 62.4058 32.1037 61.9466 33.13 61.3236ZM40.1009 29.5327C39.3928 32.4326 40.6226 35.4897 42.8249 36.3046C44.3304 33.7636 43.1777 29.6727 40.3496 28.8686C40.2793 29.0469 40.2072 29.2298 40.1009 29.5327ZM30.5279 45.1343C31.7679 45.1117 32.9034 44.8145 33.8404 43.9564C32.1923 41.2216 27.8482 41.41 26.5156 42.927C27.4461 44.2984 28.7687 44.978 30.5279 45.1343ZM151.91 41.6189C151.758 42.1865 151.475 42.7563 151.484 43.3213C151.498 44.1615 152.181 44.7733 152.877 44.7467C153.603 44.7189 154.026 44.2708 154.252 43.6269C154.551 42.772 154.286 41.8099 153.639 41.3669C153.048 40.9615 152.497 41.0735 151.91 41.6189ZM152.805 37.0399C152.651 38.1861 152.621 39.325 152.965 40.5458C153.531 39.1514 153.536 36.9666 152.992 36.1526C152.931 36.4286 152.877 36.6723 152.805 37.0399ZM155.732 48.4646C155.82 48.4634 155.909 48.4621 155.997 48.4609C155.683 47.1064 155.114 45.8972 154.03 44.9787C154.263 46.2712 154.812 47.4069 155.732 48.4646ZM157.022 40.7869C156.149 41.0491 155.371 41.46 154.621 42.2489C156.093 42.1408 157.208 41.6885 158.062 40.6034C157.754 40.6558 157.447 40.7082 157.022 40.7869ZM42.4446 46.5301C42.4054 46.9359 42.3193 47.3933 42.8981 47.4654C43.4044 47.5284 43.739 47.2207 43.784 46.7449C43.8075 46.4968 43.5976 46.2266 43.4931 45.9664C43.1569 46.1151 42.8207 46.2637 42.4446 46.5301Z" fill="#EEEEEE"/>
</svg>
